<?xml version="1.0" standalone="no"?><svg xmlns="http://www.w3.org/2000/svg" viewBox="0 0 1440 320"><path fill="#FEF7F6" fill-opacity="1" d="M0,64L34.3,80C68.6,96,137,128,206,117.3C274.3,107,343,53,411,48C480,43,549,85,617,128C685.7,171,754,213,823,213.3C891.4,213,960,171,1029,160C1097.1,149,1166,171,1234,160C1302.9,149,1371,107,1406,85.3L1440,64L1440,320L1405.7,320C1371.4,320,1303,320,1234,320C1165.7,320,1097,320,1029,320C960,320,891,320,823,320C754.3,320,686,320,617,320C548.6,320,480,320,411,320C342.9,320,274,320,206,320C137.1,320,69,320,34,320L0,320Z"></path></svg>