<svg xmlns="http://www.w3.org/2000/svg" xmlns:xlink="http://www.w3.org/1999/xlink" width="250.658" height="200.182" viewBox="0 0 250.658 200.182"><defs><style>.a,.l,.q,.r,.v{fill:none;}.a,.l,.n,.q,.v{stroke:#333;}.a,.g,.h,.l,.n,.q,.r,.t,.u,.v{stroke-miterlimit:10;}.a{stroke-width:1.476px;}.b{fill:#328193;}.c{fill:#e7e9eb;}.d{clip-path:url(#a);}.e{fill:#17182a;}.f{fill:#f29383;}.g{fill:#fefefe;}.g,.h,.t,.u{stroke:#17182a;}.g,.h,.n,.t,.u{stroke-width:0.5px;}.h,.i{fill:#f17440;}.j{fill:#333;}.k{fill:#fff;}.l,.q{stroke-linecap:round;}.l{stroke-width:0.72px;}.m{clip-path:url(#b);}.n{fill:#fccfbe;}.o{fill:#0e2e35;}.p{fill:#f8a492;}.q{stroke-width:0.461px;}.r{stroke:#0e2e35;stroke-width:0.25px;}.s{clip-path:url(#c);}.t{fill:#c24c32;}.u{fill:#f47458;}.v{stroke-width:0.393px;}</style><clipPath id="a"><ellipse cx="43.942" cy="43.942" rx="43.942" ry="43.942"/></clipPath><clipPath id="b"><ellipse cx="31.924" cy="31.924" rx="31.924" ry="31.924"/></clipPath><clipPath id="c"><ellipse cx="22.234" cy="22.234" rx="22.234" ry="22.234"/></clipPath></defs><g transform="translate(0 3.906)"><path class="a" d="M173.454,158.2l87.208-34.7L173.98,301.823,149.042,175.93l192.9,10.366L185.247,298.668,171.2,169.771l144.9-1.953L105.4,253.6l170.736,8.864" transform="translate(-97.588 -116.965)"/><ellipse class="b" cx="8.188" cy="8.188" rx="8.188" ry="8.188" transform="translate(153.76)"/><ellipse class="b" cx="8.188" cy="8.188" rx="8.188" ry="8.188" transform="translate(136.033 133.78)"/><ellipse class="b" cx="8.188" cy="8.188" rx="8.188" ry="8.188" transform="translate(0 129.348)"/><ellipse class="b" cx="8.188" cy="8.188" rx="8.188" ry="8.188" transform="translate(114.926 81.65)"/></g><g transform="translate(51.754 155.789)"><ellipse class="c" cx="22.084" cy="22.084" rx="22.084" ry="22.084"/></g><g transform="translate(186.51 46.346)"><ellipse class="c" cx="32.074" cy="32.074" rx="32.074" ry="32.074"/></g><g transform="translate(20.056 0.075)"><ellipse class="c" cx="43.792" cy="43.792" rx="43.792" ry="43.792"/></g><g transform="translate(20.131)"><g class="d"><path class="e" d="M180.094,135.4c-9.389-4.732-23.436-2.253-27.117,15.474C150.8,161.468,118.5,184,118.5,184c36.205,58.665,63.021,7.812,68.58-7.136C187.155,176.867,197.746,142.164,180.094,135.4Z" transform="translate(-120.979 -115.498)"/><path class="f" d="M209.1,192.663l40.863-1.427s31.849-9.99,32.825-10.216c.976-.3,5.859-13.07,7.136-11.943s-2.854,6.385-1.127,7.361c1.653.977,17.2-4.131,17.2-2.854-.075,2.329-9.389,3.53-9.239,4.582.15,1.127,9.615-2.1,10.591-.376.9,1.728-9.239,2.178-9.54,3.08s9.615.9,8.939,2.779c-.376,1.052-8.788-.225-8.563,1.052s6.535,3.23,5.934,4.357-5.108-2.4-8.488-1.953-6.159-.977-11.342,1.352c-5.183,2.4-22.61,13.07-34.252,14.272-11.718,1.2-37.557,3.981-37.557,3.981Z" transform="translate(-143.525 -124.383)"/><path class="g" d="M195.255,197.6c-22.384,1.052-2.7,19.83-2.7,19.83l33.051-4.732c.976-6.61-.676-14.5-.751-16.225C217.939,196.018,200.738,197.295,195.255,197.6Z" transform="translate(-137.416 -131.194)"/><path class="g" d="M170.433,193.2s-9.615-.15-14.723,5.408,8.037,49.125,8.939,56.261-4.732,25.99-4.732,25.99,30.346,6.159,39.06.376c0,0,.9-51.153,0-56.261s-8.713-25.764-10.516-27.793C186.583,195.228,170.433,193.2,170.433,193.2Z" transform="translate(-129.946 -130.404)"/><path class="h" d="M179.947,170.125s-.075.376-.15,1.052c-.6,3.08-2.779,13.446-4.282,16.3-1.8,3.455,6.235,14.422,13.9,13.07,2.329-.376-1.953-10.065-1.728-11.117.376-1.953.9-4.657,1.427-7.361.3-1.577.6-3.08.9-4.582.826-4.206,1.5-7.587,1.5-7.587Z" transform="translate(-135.103 -124.606)"/><path class="e" d="M181.076,171.052a5.416,5.416,0,0,0,.15-1.052l11.568-.3s-.676,3.455-1.5,7.587c-.3,1.5-.6,3-.9,4.582a10.616,10.616,0,0,1-5.483-2.779,14.846,14.846,0,0,1-4.206-6.235C180.85,172.179,181,171.578,181.076,171.052Z" transform="translate(-136.457 -124.556)"/><path class="e" d="M187.73,137.25s-2.4,12.995-12.694,14.2c-5.183.6-6.835,6.084-6.835,6.084s1.878-15.323,6.986-18.253C180.369,136.273,187.73,137.25,187.73,137.25Z" transform="translate(-133.347 -116.443)"/><path class="g" d="M182.318,238.638s-23.511-12.018-28.694-18.478c-5.183-6.385-4.056-18.7,2.629-21.633s33.877,24.262,33.877,24.262Z" transform="translate(-128.911 -131.675)"/><ellipse class="i" cx="2.178" cy="2.178" rx="2.178" ry="2.178" transform="translate(37.182 35.755)"/><ellipse class="i" cx="2.178" cy="2.178" rx="2.178" ry="2.178" transform="translate(61.144 36.881)"/><ellipse class="h" cx="12.094" cy="13.07" rx="12.094" ry="13.07" transform="translate(39.51 25.314)"/></g></g><circle class="j" cx="0.751" cy="0.751" r="0.751" transform="translate(66.236 34.806) rotate(-45)"/><ellipse class="j" cx="0.751" cy="0.751" rx="0.751" ry="0.751" transform="translate(77.067 35.454)"/><path class="k" d="M185.676,166.7s3.53,2.028,6.235.976a2.978,2.978,0,0,1-3.455,2.7S185.075,169.855,185.676,166.7Z" transform="translate(-117.547 -123.809)"/><path class="l" d="M191.152,155.9a3.658,3.658,0,0,0-.751,1.653c0,.9,1.052,1.577.6,2.329a2.541,2.541,0,0,1-1.2.826" transform="translate(-118.592 -121.122)"/><g transform="translate(186.735 46.496)"><g class="m"><path class="n" d="M351.8,264.648l14.873,1.5s.676-12.169.676-18.028c0-7.061-.6-16.15-1.427-15.924a12.688,12.688,0,0,0-7.511,4.507C351.725,245.794,351.8,264.648,351.8,264.648Z" transform="translate(-345.641 -186.604)"/><path class="n" d="M359.509,246.745c-.3,2.178-6.009,60.693-6.009,60.693,27.116,13.07,42.064,2.329,42.064,2.329s-.9-41.088.15-46.721c.676-3.681,1.577-28.318-.826-28.994a63.476,63.476,0,0,0-10.441-2.253c-3.305-.376-16.075-.526-18.328.225A30.078,30.078,0,0,0,359.509,246.745Z" transform="translate(-346.064 -186.428)"/><path class="h" d="M386.482,216.677l1.728,11.493s-6.385,13.746-10.216,12.544c-3.23-.977-1.2-13.145-1.2-13.145s1.728-6.535,1.2-9.765S386.482,216.677,386.482,216.677Z" transform="translate(-351.703 -182.575)"/><path class="e" d="M378.55,217.8c-.526-3.23,8.488-1.127,8.488-1.127l.15.977a4.047,4.047,0,0,1-.976,1.577,11.567,11.567,0,0,1-7.812,3.53A18.692,18.692,0,0,0,378.55,217.8Z" transform="translate(-352.26 -182.575)"/><g transform="translate(20.863 10.515)"><path class="h" d="M386.717,194.012c.225-.075,2.028,13.145-1.352,16.751s-9.99,4.807-12.319,1.953c-2.629-3.155-2.479-17.352,2.779-21.107C381.083,187.927,386.717,194.012,386.717,194.012Z" transform="translate(-371.374 -186.724)"/><path class="o" d="M393.313,193.236c3.155,5.258.826,11.117-2.854,13.971s-3.681,6.159-3.681,6.159l-.6-1.728a9.282,9.282,0,0,1-.451-4.056,6.3,6.3,0,0,1,.6-2.4c.9-1.878-1.878-3.155-2.7-4.807-.6-1.2-.3-4.206-1.577-6.084-1.052-1.427-3.756-3.606-6.31-3-2.329-3.38.826-5.709,4.507-5.784C385.651,185.424,390.759,188.955,393.313,193.236Z" transform="translate(-372.261 -185.498)"/><path class="i" d="M386.8,207.727c0,1.577.676,2.929,1.653,2.929.9,0,1.728-1.277,1.728-2.854a2.176,2.176,0,0,0-2.028-2.4C387.251,205.323,386.8,206.15,386.8,207.727Z" transform="translate(-375.213 -190.449)"/></g><path class="k" d="M377.808,213.4l-5.108-.3a2.185,2.185,0,0,0,2.253,2.1C377.658,215.429,377.808,213.4,377.808,213.4Z" transform="translate(-350.842 -181.852)"/><path class="p" d="M436.117,312.6v-.376c-.376-4.056-3.756-38.083-4.357-39.51-.526-1.277-15.624-22.91-15.624-22.91L408.7,259.94l14.5,19.38c.3,1.2,5.559,24.187,5.559,24.187s1.052,4.206,1.577,6.685c-.225.6-.451,1.2-.6,1.653a12.814,12.814,0,0,1-1.577,2.479,17.548,17.548,0,0,0-1.878,3.305c-.15.6-.451,1.8-.6,2.554a15.052,15.052,0,0,0-.376,2.028,4.014,4.014,0,0,1-.451,1.052.62.62,0,0,0,.751.9c.526-.15.9-.826,1.2-1.277.751-1.2,1.127-3.38,1.277-3.305.15.15.826,3.831.9,4.282a38.369,38.369,0,0,0,1.277,5.559c.451.826.976.676,1.127.15.15-.451-.451-6.46-.451-6.46s-.075-.751.3-.526c.3.225.9,5.709,1.127,6.535s.751,1.2,1.2.6c.526-.751-.376-6.61-.376-6.61s-.075-.751.225-.676.676,4.732.976,5.183a.608.608,0,0,0,1.127-.15c.376-.826-.526-6.009-.526-6.009s.075-.376.225-.3c.225.15.826,4.131,1.2,4.432s.6,0,.6,0c.751-.526-.376-4.282-.376-6.159s-.826-3.981-.6-6.235A4.048,4.048,0,0,0,436.117,312.6Z" transform="translate(-359.8 -190.985)"/><path class="n" d="M425.839,259.777l-12.92,8.638s-7.286-10.817-11.192-14.647c-4.882-4.807,1.8-19.6,4.958-18.779C413.746,236.867,425.839,259.777,425.839,259.777Z" transform="translate(-357.635 -187.291)"/></g><ellipse class="j" cx="0.451" cy="0.451" rx="0.451" ry="0.451" transform="translate(26.365 24.638)"/><ellipse class="j" cx="0.451" cy="0.451" rx="0.451" ry="0.451" transform="translate(21.934 24.187)"/><path class="q" d="M375.3,205.2l-1.5,3.38a1.859,1.859,0,0,0,.9.751" transform="translate(-351.115 -179.886)"/></g><path class="e" d="M187.945,142c0,.526-4.883,10.065-15.023,11.117s2.854-11.868,3.38-12.018C176.828,141.024,187.945,142,187.945,142Z" transform="translate(-113.431 -117.438)"/><path class="r" d="M388.4,207s1.653.15.976,2.1" transform="translate(-168.013 -133.838)"/><g transform="translate(51.453 155.713)"><g class="s"><path class="e" d="M198.835,327.776c-6.084-3.23-13.22-.3-13.746,8.188s5.483,11.493,11.267,10.967C202.14,346.329,207.774,331.381,198.835,327.776Z" transform="translate(-168.865 -319.288)"/><ellipse class="e" cx="2.929" cy="2.929" rx="2.929" ry="2.929" transform="translate(14.122 19.455)"/><ellipse class="e" cx="2.929" cy="2.929" rx="2.929" ry="2.929" transform="translate(16.976 22.234)"/><ellipse class="e" cx="2.929" cy="2.929" rx="2.929" ry="2.929" transform="translate(20.807 24.337)"/><ellipse class="e" cx="2.929" cy="2.929" rx="2.929" ry="2.929" transform="translate(12.845 14.723)"/><ellipse class="e" cx="2.929" cy="2.929" rx="2.929" ry="2.929" transform="translate(13.821 9.765)"/><ellipse class="e" cx="2.929" cy="2.929" rx="2.929" ry="2.929" transform="translate(17.201 6.535)"/><ellipse class="e" cx="2.929" cy="2.929" rx="2.929" ry="2.929" transform="translate(21.633 5.258)"/><ellipse class="e" cx="2.929" cy="2.929" rx="2.929" ry="2.929" transform="translate(26.215 5.634)"/><ellipse class="e" cx="2.929" cy="2.929" rx="2.929" ry="2.929" transform="translate(29.67 9.239)"/><ellipse class="e" cx="2.929" cy="2.929" rx="2.929" ry="2.929" transform="translate(29.595 18.478)"/><ellipse class="e" cx="2.929" cy="2.929" rx="2.929" ry="2.929" transform="translate(26.666 22.835)"/><ellipse class="e" cx="2.929" cy="2.929" rx="2.929" ry="2.929" transform="translate(30.722 13.596)"/><ellipse class="e" cx="2.929" cy="2.929" rx="2.929" ry="2.929" transform="translate(22.685 23.887)"/><path class="f" d="M207.8,358.933l20.732-.676s16.15-5.033,16.676-5.183,3-6.61,3.605-6.084c.676.526-1.427,3.23-.6,3.756.826.451,8.713-2.1,8.713-1.427,0,1.2-4.732,1.8-4.657,2.329s4.882-1.052,5.333-.225c.451.9-4.657,1.127-4.807,1.577s4.883.451,4.507,1.427c-.225.526-4.432-.15-4.357.526.15.676,3.305,1.653,3,2.178-.3.6-2.554-1.2-4.282-.977s-3.08-.526-5.709.676-11.417,6.61-17.352,7.211-19,2.028-19,2.028Z" transform="translate(-174.524 -324.38)"/><path class="t" d="M200.705,361.486c-11.342.526-1.352,9.99-1.352,9.99l16.751-2.4c.526-3.3-.376-7.361-.376-8.187C212.2,360.66,203.485,361.336,200.705,361.486Z" transform="translate(-171.41 -327.834)"/><path class="u" d="M188.143,359.3s-4.882-.075-7.436,2.779,4.056,24.863,4.507,28.469-2.4,13.145-2.4,13.145,15.4,3.08,19.755.15c0,0,.451-25.915,0-28.469s-4.432-13.07-5.333-14.047C196.33,360.276,188.143,359.3,188.143,359.3Z" transform="translate(-167.636 -327.451)"/><path class="h" d="M192.911,347.55a2.4,2.4,0,0,1-.075.526c-.3,1.577-1.427,6.835-2.178,8.263-.9,1.728,3.155,7.286,7.061,6.61,1.127-.225-.976-5.108-.9-5.634.225-.977.451-2.329.751-3.756.15-.751.3-1.577.451-2.329.451-2.1.751-3.831.751-3.831Z" transform="translate(-170.227 -324.49)"/><path class="e" d="M193.55,348.076a2.4,2.4,0,0,0,.075-.526l5.859-.15s-.376,1.728-.751,3.831c-.15.751-.3,1.5-.451,2.329a5.5,5.5,0,0,1-2.779-1.427,7.09,7.09,0,0,1-2.1-3.155A5.547,5.547,0,0,0,193.55,348.076Z" transform="translate(-170.941 -324.49)"/><ellipse class="h" cx="5.859" cy="6.535" rx="5.859" ry="6.535" transform="translate(20.431 13.145)"/><path class="e" d="M197.465,331.644s-4.131,6.31-6.835,6.46c-2.629.15-3.23,3.605-3.23,3.605s1.5-7.962,4.206-9.389A10.008,10.008,0,0,1,197.465,331.644Z" transform="translate(-169.448 -320.527)"/><path class="i" d="M191.259,342.071c.826.3,1.277,1.052.9,1.653a1.739,1.739,0,0,1-2.1.526c-.826-.3-1.277-1.052-.9-1.653A1.97,1.97,0,0,1,191.259,342.071Z" transform="translate(-169.851 -323.142)"/><path class="i" d="M205.759,341.16c.826.3,1.277,1.052.9,1.653a1.739,1.739,0,0,1-2.1.526c-.826-.3-1.277-1.052-.9-1.653A1.845,1.845,0,0,1,205.759,341.16Z" transform="translate(-173.459 -322.907)"/><path class="t" d="M194.255,382.243s-11.943-6.084-14.5-9.314c-2.629-3.23-2.028-9.464,1.352-10.967s17.126,12.319,17.126,12.319Z" transform="translate(-167.138 -328.085)"/></g><ellipse class="j" cx="0.451" cy="0.451" rx="0.451" ry="0.451" transform="translate(23.286 17.126)"/><ellipse class="j" cx="0.451" cy="0.451" rx="0.451" ry="0.451" transform="translate(28.694 17.126)"/><path class="v" d="M198.7,340.8l.225,2.479a2.911,2.911,0,0,1-.826.225" transform="translate(-172.11 -322.847)"/><path class="k" d="M198.555,346.8A3.317,3.317,0,0,1,195.7,345a1.725,1.725,0,0,0-.3,1.052,1.557,1.557,0,0,0,2.1,1.352A1.644,1.644,0,0,0,198.555,346.8Z" transform="translate(-171.438 -323.893)"/></g></svg>