<svg xmlns="http://www.w3.org/2000/svg" width="171.981" height="200.055" viewBox="0 0 171.981 200.055"><defs><style>.a{fill:#e7e9eb;}.b{fill:#17182a;}.c,.d{fill:#f17440;}.c,.d,.f,.g,.i,.l,.n{stroke:#333;}.c,.d,.e,.f,.g,.i,.l,.n,.o,.p{stroke-miterlimit:10;}.c,.d,.e,.f,.g,.i,.n,.p{stroke-width:0.398px;}.c,.l{fill-rule:evenodd;}.e,.h{fill:#fefefe;}.e,.o,.p{stroke:#1a1a1a;}.f,.g{fill:#04a2c6;}.g{opacity:0.5;}.i{fill:#f2784f;}.j{fill:#db6040;}.k{fill:#333;}.l,.n,.o,.p{fill:none;}.l{stroke-linecap:round;stroke-width:0.335px;}.m{fill:#fff;}.o{stroke-width:0.316px;}</style></defs><ellipse class="a" cx="85.62" cy="86.145" rx="85.62" ry="86.145" transform="translate(0 27.71)"/><g transform="translate(25.27)"><path class="b" d="M105.415,20.515C91.6,9.507,67.86,5.191,60.2,21.81,42.607,29.472,30.952,66.7,44.01,85.913A34.216,34.216,0,0,0,59.874,100.7c1.079,13.382,9.6,25.9,22.123,30.433,3.022,1.079,7.662,2.59,8.31,3.022-.863-.648,24.174,18.562,52.664,3.669C172.217,122.606,149.554,56.991,105.415,20.515Z" transform="translate(-35.916 -10.772)"/><path class="c" d="M127.153,152.092c.648-.216,1.727-.54,1.4-1.511-.108-.54-.432-1.079-.54-1.619-.216-.971.648-1.187,1.511-.971.216,0,.755.755.863.54s-.216-1.187-.216-1.619c0-.648,1.4-1.187,1.835-1.511.216-.108.324-.54.54-.648.432-.108.647.108.971-.108.863-.54-.324-1.835,1.3-1.835.324,0,.971-.324,1.187,0,.648.971-.432,2.482-.216,3.453.108.324.755.432.971.863a1.094,1.094,0,0,1,.216.863s.432,1.079.755,1.727c.108.108.216.54.54.432.863-.54.54-2.05.971-2.7.755-.971,2.158-.432,2.914-1.4.324-.432,0-1.4.324-1.619,1.3-.971,1.943.971,3.022.647.648-.216,1.187-1.079,2.05-1.295.648-.108,1.727-.108,2.158.648.324.755-1.3,1.835-1.511,2.374-.108.432.108.648,0,1.187-.108.755-.755,1.187-1.187,1.727-.54.648-.108,1.295-.216,2.05-.108.54-1.079.755-1.079.755a1.163,1.163,0,0,1,0,1.079c-.324.54-2.158,2.05-2.266,2.7-.216,1.079,1.943.54,1.835,1.511-.108.648-1.511,1.943-1.835,2.482-.324.432.108.648-.108,1.187-.324.755-.971,1.079-1.3,1.835s.54,1.511-.108,2.158c-.755.755-1.835.971-2.59,1.727a7.857,7.857,0,0,1-1.943,1.835c-.971.54-2.158.648-3.13,1.3-1.835,1.3-3.13,3.345-5.828,3.022a5.254,5.254,0,0,1-4.1-3.238,17.723,17.723,0,0,1-1.727-11.008,15.358,15.358,0,0,1,1.727-4.856c.324-.54.648-1.079.971-1.511A12.909,12.909,0,0,1,127.153,152.092Z" transform="translate(-28.679 0.548)"/><path class="c" d="M165.137,114.9a2.613,2.613,0,0,1,2.266,4.209,4.173,4.173,0,0,1-3.669,1.727c-1.4.108-3.561-1.727-3.13-3.345a3.18,3.18,0,0,1,.54-1.4C162.547,114.685,163.086,115.009,165.137,114.9Z" transform="translate(-25.494 -2.017)"/><path class="c" d="M121.3,136.821a4.3,4.3,0,0,1,1.079-1.3,3.126,3.126,0,0,1,2.374-.216c.755.324,1.079,1.187,1.4,1.835.216.432.54.648.648,1.079s-.54,1.079-.324,1.619c.216.432,1.943,1.4,1.511,1.943-.324.432-1.4-.54-1.943-.432-.216.108-1.079.432-1.619.648s-1.3,1.187-1.619.971c-1.079-.648-1.3-2.59-1.3-3.669A7.076,7.076,0,0,0,121.3,136.821Z" transform="translate(-28.856 -0.306)"/><path class="c" d="M160.91,154.967c-1.3.216-1.835-2.158-1.3-3.022.324-.54.54-1.295.863-1.835a5.724,5.724,0,0,1,1.619-1.619c2.158-1.295,6.259-1.835,7.77-.432a2.952,2.952,0,0,1,.648,3.885c-1.3,1.943-4.533,3.777-4.533,3.777a5.28,5.28,0,0,0-2.266-1.079A22.252,22.252,0,0,0,160.91,154.967Z" transform="translate(-25.584 0.711)"/><path class="b" d="M119.936,166.016l21.044-21.044h0l20.936-20.936a1.755,1.755,0,1,1,2.482,2.482l-21.044,21.044h0L122.418,168.5a1.755,1.755,0,1,1-2.482-2.482Z" transform="translate(-28.748 -1.147)"/><path class="d" d="M167.877,107.038c3.238-4.64,8.526-13.921,5.936-17.375h0s-2.7-5.612-18.13-8.526A191.115,191.115,0,0,0,128.163,77.9L127.3,96.57s15.324,2.482,23.742,4.317a318.8,318.8,0,0,0-19.317,29.462,5.783,5.783,0,0,0-.755,3.561c.216,3.238.755,9.5,1.079,10.792a22.381,22.381,0,0,0,2.05,5.18c.432.755,3.669,3.669,3.885,4.209a3.823,3.823,0,0,0,1.3,1.079c.324.216,2.266,3.669,3.022,4.209s2.914-.324,3.238-1.079a.562.562,0,0,1,.54.108,2.73,2.73,0,0,0,2.05-.108,1.743,1.743,0,0,0,.755-1.943s-.108-.432,0-.54a4.643,4.643,0,0,0,1.511-.755,2,2,0,0,0,.216-2.482s2.914-.432,1.727-2.806l-1.619-3.345a14.415,14.415,0,0,0-.863-2.806c-.432-.755-3.022-5.72-3.345-5.936-.324-.324-2.806-3.022-3.345-3.669C144.351,133.154,163.129,113.729,167.877,107.038Z" transform="translate(-28.127 -4.915)"/><path class="e" d="M143.2,76.231s-30.973-5.288-45.757-2.158h-.108c-.108,0-3.022.755-4.425.971-6.907.648-31.4,1.727-35.613,4.317,0,0,2.266,18.238,5.288,38.743.971,3.238,10.36,24.5,10.36,35.613l-9.821,43.275c14.245,11.547,54.5,10.468,65.4-4.317,0,0-4.964-32.052-4.209-46.3.971-18.886,4.317-30.217-.648-45.218,8.849.108,18.022.648,18.022.648Z" transform="translate(-34.133 -4.962)"/><path class="d" d="M78.6,58.746s2.59,14.137,2.05,19.641c-.54,5.612,2.05,23.526,13.274,23.526,11.331.108,2.158-22.771,1.079-28.275s-1.3-22.339-1.3-22.339Z" transform="translate(-32.458 -7.304)"/><path class="b" d="M94.032,59.826c-.216-4.64-.216-8.526-.216-8.526L78.6,58.638s.54,2.914,1.079,6.583C86.37,66.732,91.119,64.142,94.032,59.826Z" transform="translate(-32.47 -7.355)"/><g transform="translate(60.432 160.518)"><path class="f" d="M120.414,158.7h33.023v9.065c0,10.576-4.856,19.209-10.9,19.209H102.5c-6.043,0-10.9-8.633-10.9-19.209V158.7Z" transform="translate(-91.6 -158.7)"/><path class="g" d="M143.1,167.765V158.7h7.015v9.065c0,10.576-4.856,19.209-10.9,19.209H132.2C138.243,187.083,143.1,178.449,143.1,167.765Z" transform="translate(-88.385 -158.7)"/></g><path class="d" d="M36.1,141.273c0-2.806,11.331-30.973,11.331-30.973l16.727,7.662s-7.123,16.619-7.446,18.346c0,0,22.447,17.159,34.1,24.821,1.3.216,5.4,1.3,6.691.863h0a33.365,33.365,0,0,1,6.8-1.187c1.079.108,3.345.432,4.748.54,1.4.216,3.022.324,3.669.54a7.74,7.74,0,0,0,2.158-.108,1.23,1.23,0,0,1,1.187,1.943,5.944,5.944,0,0,1-2.914,1.295c-2.482.54-6.475-.216-6.367.216.108.324,6.043,3.777,6.8,4.209.648.432,7.662,4.425,8.741,5.612s.54,2.05-.432,2.05c-.863,0-10.792-4.748-10.792-4.748s-1.3-.648-1.079.108,9.281,5.072,10.576,5.936c1.187.863,1.619,2.05.216,2.482-1.727.432-11.116-4.748-11.116-4.748s-1.187-.648-1.3-.108,7.662,4.1,8.31,4.856a1.161,1.161,0,0,1-.971,1.943c-1.619.108-9.928-4.64-9.928-4.64s-.755-.216-.647.216,6.583,3.885,6.907,4.856a.8.8,0,0,1-.324,1.079c-1.3.971-7.123-3.345-10.36-4.425-.971-.324-7.015-3.993-15.324-9.065h0c-9.713-5.072-36.476-18.67-36.476-18.67S36.1,144.078,36.1,141.273Z" transform="translate(-36.1 -2.015)"/><path class="e" d="M56.9,79.513s4.533-4.1,9.713,1.079,9.6,14.677,7.015,34.21c-.863,1.835-2.158,9.5-2.158,9.5-6.259,2.05-26.872-9.065-26.872-9.065S53.665,83.29,56.9,79.513Z" transform="translate(-35.427 -5.034)"/><path class="d" d="M100.409,41.548a4.821,4.821,0,0,0,1.835-3.885,4.534,4.534,0,0,0-1.511-2.914c-1.835-1.619-3.561,0-3.993.432-4.533-5.5-11.763-7.986-18.238-5.72-6.691,2.266-11.116,8.849-11.116,16.3-.432,0-3.669.324-3.885,2.914a3.9,3.9,0,0,0,1.079,3.022,4.772,4.772,0,0,0,4.209,1.3h0c3.453,8.526,12.519,13.382,21.152,10.576C98.79,60.542,103,50.829,100.193,41.656Z" transform="translate(-33.724 -9.358)"/><g transform="translate(28.869 49.035)"><path class="h" d="M62.7,56a14.943,14.943,0,0,0,2.158,3.561,12.051,12.051,0,0,0,3.022,2.7c.324.216.54.324.863.54a3.231,3.231,0,0,0,.863.432c.324.108.648.324.971.432l.971.324c1.3.432,2.7.648,4.1.971H73.492a17.488,17.488,0,0,1-2.158-.324,11.545,11.545,0,0,1-3.993-1.619,10.086,10.086,0,0,1-3.022-3.022A11.544,11.544,0,0,1,62.7,56Z" transform="translate(-62.7 -56)"/></g><path class="b" d="M91.52,25.062S84.937,45.675,66.7,47.185c-10.468.863-2.59-18.67-2.59-19.1s6.367-9.6,7.986-9.6S83.966,17.4,83.966,17.4Z" transform="translate(-33.93 -10.247)"/><g transform="translate(40.806 18.269)"><path class="h" d="M85.787,27.7a17.049,17.049,0,0,1-2.158,3.885,22.061,22.061,0,0,1-2.7,3.561,18.027,18.027,0,0,1-3.345,3.022A17.049,17.049,0,0,1,73.7,40.326a42.286,42.286,0,0,0,3.453-2.7,42.814,42.814,0,0,0,3.13-3.13c.971-1.079,1.943-2.266,2.806-3.345A42.288,42.288,0,0,0,85.787,27.7Z" transform="translate(-73.7 -27.7)"/></g><g transform="translate(32.768 31.435)"><path class="h" d="M73.1,39.9a8.787,8.787,0,0,1-3.022,2.59A8.007,8.007,0,0,1,66.3,43.569c1.187-.648,2.266-1.187,3.345-1.835C70.833,41.087,71.912,40.44,73.1,39.9Z" transform="translate(-66.3 -39.9)"/></g><path class="i" d="M66.715,75.3a3.635,3.635,0,0,1,3.022,1.511C72.11,79.833,78.586,88.682,81.5,98.5c3.669,12.087,10.36,23.31,8.2,27.087,0,0-.971-1.943-7.338,1.187s-7.662,3.777-12.734,2.59c0,0-3.022-42.52-8.418-51.585a1.09,1.09,0,0,1,.648-1.619A25.5,25.5,0,0,1,66.715,75.3Z" transform="translate(-33.949 -5.239)"/><path class="j" d="M81.245,124.592l-.647.324c-.755-10.684-2.7-22.015-2.7-22.015,3.453,7.662,6.151,16.188,7.554,20.073A19.915,19.915,0,0,0,81.245,124.592Z" transform="translate(-32.545 -2.984)"/><ellipse class="k" cx="0.971" cy="0.971" rx="0.971" ry="0.971" transform="translate(55.326 34.025)"/><ellipse class="k" cx="0.971" cy="0.971" rx="0.971" ry="0.971" transform="translate(45.997 37.478)"/><path class="l" d="M83.4,44.1s.755,2.158,2.158,5.612a1.25,1.25,0,0,1-.648,1.511.835.835,0,0,1-.324.108" transform="translate(-32.087 -7.968)"/><path class="m" d="M86.548,54.8s-3.993.432-6.043-1.4c-.216,1.619.108,3.453,2.482,3.885C85.468,57.933,86.548,54.8,86.548,54.8Z" transform="translate(-32.331 -7.189)"/><path class="n" d="M96.371,37.619S97.343,36,95.4,36" transform="translate(-31.071 -8.774)"/><path class="n" d="M67.174,48.235s-1.835-.324-.54-1.835" transform="translate(-33.55 -7.78)"/><g transform="translate(26.244 0.901)"><path class="h" d="M60.1,21.852a19.759,19.759,0,0,1,12.519-9.6,25.414,25.414,0,0,1,8.094-.54,38.069,38.069,0,0,1,7.878,1.835,56.515,56.515,0,0,1,7.338,3.345c2.374,1.3,4.533,2.914,6.8,4.425a36.694,36.694,0,0,1,3.238,2.482,36.232,36.232,0,0,1,3.13,2.59l3.022,2.7a17.921,17.921,0,0,1,1.511,1.4l1.4,1.4a150.967,150.967,0,0,1,19.857,25.469c2.914,4.533,5.5,9.281,7.986,14.029a106,106,0,0,1,6.259,14.893A94.46,94.46,0,0,0,142.442,71.6q-3.723-7.123-8.094-13.921a155.059,155.059,0,0,0-19.857-25.253l-1.4-1.4c-.432-.432-.971-.863-1.511-1.4l-2.914-2.7c-.971-.863-2.05-1.727-3.13-2.59s-2.05-1.727-3.13-2.482c-2.158-1.511-4.425-3.022-6.691-4.425a63.258,63.258,0,0,0-7.231-3.453,31.547,31.547,0,0,0-7.77-1.943,22.292,22.292,0,0,0-7.986.432A20.3,20.3,0,0,0,60.1,21.852Z" transform="translate(-60.1 -11.606)"/></g><g transform="translate(3.354 31.736)"><path class="h" d="M44.272,40A66.063,66.063,0,0,0,41.9,47.446a63.57,63.57,0,0,0-1.4,7.662,46.917,46.917,0,0,0,.432,15.54A42.291,42.291,0,0,0,43.084,78.1,35.4,35.4,0,0,0,46.754,85a37.252,37.252,0,0,0,4.856,6.043,33.125,33.125,0,0,0,2.806,2.7c.971.863,2.05,1.619,3.022,2.482a43.526,43.526,0,0,1-11.331-10.9,37.691,37.691,0,0,1-6.043-14.569,44.693,44.693,0,0,1-.324-15.648A56.78,56.78,0,0,1,44.272,40Z" transform="translate(-39.208 -40)"/></g><path class="b" d="M94.894,35.573c0-.108-7.015-1.4-8.094-6.367-.216-2.266,7.446-1.187,7.446-1.187s1.619.648,1.619,1.079C95.865,29.638,94.894,35.573,94.894,35.573Z" transform="translate(-31.785 -9.426)"/><g transform="translate(34.539 87.776)"><path class="h" d="M75.668,102.546a5.341,5.341,0,0,0,3.238-6.151c0-.216-.108-.324.108-.432s.216,0,.324.216a5.947,5.947,0,0,1-3.13,6.691,5.725,5.725,0,0,1-7.662-2.7,5.858,5.858,0,0,1,2.266-7.662c.108-.108.216-.216.324,0s.108.324-.108.432a5.04,5.04,0,0,0-2.374,2.806,5.263,5.263,0,0,0,.971,5.288,5.1,5.1,0,0,0,4.964,1.727A3.193,3.193,0,0,0,75.668,102.546Z" transform="translate(-67.927 -91.677)"/><path class="h" d="M75.337,101.242a4.329,4.329,0,0,1-5.5-1.835,4.224,4.224,0,0,1,1.4-5.4c.108-.108.216-.216.324-.108.108.216-.108.216-.216.324a3.848,3.848,0,0,0,3.777,6.691,3.9,3.9,0,0,0,2.158-4.1V96.6c0-.108,0-.216.108-.216a.106.106,0,0,1,.108.108,3.672,3.672,0,0,1,.108,1.079A4.086,4.086,0,0,1,75.337,101.242Z" transform="translate(-67.812 -91.56)"/><path class="h" d="M74.669,97.914c.108.216.324.324.108.648-.324.432-.54.648-.863.432-.216-.108-.216,0-.324.108a.729.729,0,0,1-.647.432.684.684,0,0,1-.54-.648,1.179,1.179,0,0,1,.432-1.3c.108-.108.216-.216.108-.432a2.657,2.657,0,0,1-.108-1.3.973.973,0,0,1,.108-.54c.108-.216.216-.324.432-.324s.324.216.432.324a2.033,2.033,0,0,1,.216.863V97.7c0,.216,0,.54.216.648s.324-.216.432-.432Zm-1.511-.108a1.451,1.451,0,0,0-.216.863c0,.108.108.324.216.324.216,0,.216-.108.216-.324C73.482,98.345,73.266,98.13,73.158,97.806Zm.432-.54a7.126,7.126,0,0,0-.108-1.511c0-.108,0-.324-.216-.216-.108,0-.108.216-.108.324A5.343,5.343,0,0,0,73.59,97.266Z" transform="translate(-67.575 -91.469)"/><path class="h" d="M78.275,95.151c-.216.108-.324,0-.324-.216a6.208,6.208,0,0,0-2.05-2.05,4.877,4.877,0,0,0-3.669-.54c-.108,0-.216.108-.324,0a.4.4,0,0,1-.108-.324c0-.108.108-.108.216-.108a5.666,5.666,0,0,1,6.475,2.806C78.491,95.043,78.491,95.151,78.275,95.151Z" transform="translate(-67.62 -91.729)"/><path class="h" d="M72.511,93.5A4.085,4.085,0,0,1,76.4,94.8a1.9,1.9,0,0,1,.432.54c0,.108.108.216,0,.216-.108.108-.216,0-.216-.108a3.594,3.594,0,0,0-1.835-1.511,3.731,3.731,0,0,0-2.158-.216c-.108,0-.216,0-.216-.108C72.3,93.5,72.4,93.5,72.511,93.5Z" transform="translate(-67.576 -91.593)"/></g><path class="o" d="M120.094,124.3s-1.4,4.64-8.094,7.338" transform="translate(-29.642 -1.222)"/><path class="p" d="M121.146,99.113a71.343,71.343,0,0,0-7.446-.108" transform="translate(-29.5 -3.372)"/><path class="p" d="M119.245,99.1a27.829,27.829,0,0,0-3.345,1.943" transform="translate(-29.326 -3.354)"/><g transform="translate(57.178 20.751)"><path class="h" d="M94.3,33.345a8.324,8.324,0,0,1-3.13-1.079A6,6,0,0,1,88.8,30a25.433,25.433,0,0,0,2.7,1.619C92.469,32.158,93.333,32.7,94.3,33.345Z" transform="translate(-88.8 -30)"/></g></g></svg>