<svg xmlns="http://www.w3.org/2000/svg" xmlns:xlink="http://www.w3.org/1999/xlink" width="308" height="200" viewBox="0 0 308 200"><defs><style>.a,.d,.h,.r{fill:#fff;}.b{clip-path:url(#a);}.c{fill:#e7e9eb;}.ad,.af,.ag,.an,.aq,.d,.e,.f,.g,.h,.l,.m,.q,.r,.t,.u,.w,.x,.y,.z{stroke:#17182a;}.ad,.af,.ag,.ak,.al,.am,.an,.ao,.aq,.d,.e,.f,.g,.h,.i,.l,.m,.q,.r,.t,.u,.w,.x,.y,.z{stroke-miterlimit:10;}.d{stroke-width:0.782px;}.ad,.af,.an,.e,.g,.q{fill:#04a2c6;}.e{stroke-width:1.272px;}.f{fill:#d8d8d8;}.f,.g,.h{stroke-width:0.5px;}.ak,.al,.i,.t,.z{fill:none;}.i{stroke:#000;stroke-linejoin:round;stroke-width:1.071px;}.ak,.al,.aq,.i{stroke-linecap:round;}.j{clip-path:url(#b);}.k{fill:#17182a;}.ag,.ai,.aq,.l,.m,.x{fill:#f17440;}.l{stroke-width:0.62px;}.m,.q,.t{stroke-width:0.58px;}.n{fill:#1a2e35;}.o{fill:#ffbf9d;}.p{fill:#ff9a6c;}.r{stroke-width:0.522px;}.s{opacity:0.3;}.ap,.u,.y{fill:#f2784f;}.u{stroke-width:0.571px;}.v{fill:#ff735d;}.w{fill:#c4452c;}.w,.z{stroke-width:0.57px;}.ao,.aq,.x{stroke-width:0.489px;}.y{stroke-width:0.46px;}.aa{fill:#fefdfd;}.ab{fill:#666;}.ac{fill:#231f20;}.ad{stroke-width:0.53px;}.ae{fill:#2f539b;opacity:0.5;}.af{stroke-width:0.481px;}.ag,.am,.an{stroke-width:0.508px;}.ah{fill:#01183a;}.aj{fill:#333;}.ak,.al,.ao{stroke:#333;}.ak{stroke-width:0.428px;fill-rule:evenodd;}.al{stroke-width:0.376px;}.am{fill:#184655;stroke:#1a2e35;}.ao{fill:#fccfbe;}</style><clipPath id="a"><rect class="a" width="308" height="200" transform="translate(1596 3290)"/></clipPath><clipPath id="b"><ellipse cx="97.149" cy="99.859" rx="97.149" ry="99.859"/></clipPath></defs><g class="b" transform="translate(-1596 -3290)"><g transform="translate(1564 3290)"><path class="c" d="M91,0a91,91,0,0,1,91,91c0,50.258-108,44.939-108,44.939S0,141.258,0,91A91,91,0,0,1,91,0Z" transform="translate(96.44 5.025)"/><g transform="translate(54.087 51.334)"><path class="d" d="M128.125,125.011v78.963H46.6V124.938L87.216,98.3Z" transform="translate(-39.352 -89.811)"/><rect class="e" width="13.722" height="13.722" transform="translate(20.311 42.994)"/><rect class="f" width="28.212" height="42.78" transform="translate(34.032 71.237)"/><path class="f" d="M121.382,111.278,76.412,81.566a3.091,3.091,0,0,0-1.683-.476,2.58,2.58,0,0,0-1.683.476L51.2,95.983V83.871H39.894v19.613l-11.819,7.83a2.852,2.852,0,1,0,3.147,4.757L74.729,87.348l43.507,28.724a2.841,2.841,0,0,0,3.952-.805A2.878,2.878,0,0,0,121.382,111.278Z" transform="translate(-26.792 -78.895)"/><path class="f" d="M70.077,80.223H60.088A2.468,2.468,0,0,1,57.6,77.735v-.146A2.468,2.468,0,0,1,60.088,75.1h9.989a2.468,2.468,0,0,1,2.488,2.488v.146A2.491,2.491,0,0,1,70.077,80.223Z" transform="translate(-46.327 -75.1)"/><rect class="g" width="13.722" height="13.722" transform="translate(61.805 42.994)"/><ellipse class="g" cx="7.647" cy="7.647" rx="7.647" ry="7.647" transform="translate(39.558 17.015)"/></g><g transform="translate(140.505 51.334)"><path class="h" d="M128.125,125.011v78.963H46.6V124.938L87.216,98.3Z" transform="translate(-39.352 -89.811)"/><rect class="g" width="13.722" height="13.722" transform="translate(20.311 42.994)"/><rect class="f" width="28.212" height="42.78" transform="translate(34.032 71.237)"/><path class="f" d="M121.382,111.278,76.412,81.566a3.091,3.091,0,0,0-1.683-.476,2.58,2.58,0,0,0-1.683.476L51.2,95.983V83.871H39.894v19.613l-11.819,7.83a2.852,2.852,0,1,0,3.147,4.757L74.729,87.348l43.507,28.724a2.841,2.841,0,0,0,3.952-.805A2.878,2.878,0,0,0,121.382,111.278Z" transform="translate(-26.792 -78.895)"/><path class="f" d="M70.077,80.223H60.088A2.468,2.468,0,0,1,57.6,77.735v-.146A2.468,2.468,0,0,1,60.088,75.1h9.989a2.468,2.468,0,0,1,2.488,2.488v.146A2.491,2.491,0,0,1,70.077,80.223Z" transform="translate(-46.327 -75.1)"/><rect class="g" width="13.722" height="13.722" transform="translate(61.805 42.994)"/><ellipse class="g" cx="7.647" cy="7.647" rx="7.647" ry="7.647" transform="translate(39.558 17.015)"/></g><g transform="translate(226.521 51.334)"><path class="d" d="M128.125,125.011v78.963H46.6V124.938L87.216,98.3Z" transform="translate(-39.352 -89.811)"/><rect class="g" width="13.722" height="13.722" transform="translate(20.311 42.994)"/><rect class="f" width="28.212" height="42.78" transform="translate(34.032 71.237)"/><path class="f" d="M121.382,111.278,76.412,81.566a3.091,3.091,0,0,0-1.683-.476,2.58,2.58,0,0,0-1.683.476L51.2,95.983V83.871H39.894v19.613l-11.819,7.83a2.852,2.852,0,1,0,3.147,4.757L74.729,87.348l43.507,28.724a2.841,2.841,0,0,0,3.952-.805A2.878,2.878,0,0,0,121.382,111.278Z" transform="translate(-26.792 -78.895)"/><path class="f" d="M70.077,80.223H60.088A2.468,2.468,0,0,1,57.6,77.735v-.146A2.468,2.468,0,0,1,60.088,75.1h9.989a2.468,2.468,0,0,1,2.488,2.488v.146A2.491,2.491,0,0,1,70.077,80.223Z" transform="translate(-46.327 -75.1)"/><rect class="e" width="13.722" height="13.722" transform="translate(61.805 42.994)"/><ellipse class="g" cx="7.647" cy="7.647" rx="7.647" ry="7.647" transform="translate(39.558 17.015)"/></g><g transform="translate(180.265 138.238)"><g transform="translate(0.14)"><line class="i" y2="37.403"/><line class="i" y2="37.403" transform="translate(3.768)"/><line class="i" y2="37.403" transform="translate(7.606)"/><line class="i" y2="37.403" transform="translate(11.444)"/><line class="i" y2="37.403" transform="translate(15.212)"/><line class="i" y2="37.403" transform="translate(22.888)"/><line class="i" y2="37.403" transform="translate(19.05)"/><line class="i" y2="37.403" transform="translate(26.656)"/><line class="i" y2="37.403" transform="translate(30.494)"/></g><line class="i" x2="31.96" transform="translate(0 4.117)"/><line class="i" x2="31.96" transform="translate(0 37.333)"/></g><g transform="translate(0 0)"><g class="j" transform="translate(0 0)"><path class="k" d="M183.186,220.8l4.334,9.686s-4.334,46.007,10.365,64.894l-26.2-9.1L169.9,244.53Z" transform="translate(-102.716 -196.295)"/><path class="l" d="M171.265,276.6h-5.183A10.238,10.238,0,0,1,156,266.235v-.872A10.238,10.238,0,0,1,166.082,255h6.408a3.732,3.732,0,0,1,3.675,3.777v12.882A4.913,4.913,0,0,1,171.265,276.6Z" transform="translate(-101.913 -197.371)"/><path class="l" d="M177.84,262.536A15.46,15.46,0,0,1,171.9,263.7c-9.894,0-17.9-9.008-17.9-20.049s8.009-20.049,17.9-20.049c7.538,0,14.04,5.23,16.678,12.688C189.335,238.613,189.241,256.822,177.84,262.536Z" transform="translate(-101.798 -196.383)"/><g transform="translate(76.607 274.878)"><path class="m" d="M181.519,490.148l-1.319,70.8,16.584,1.84,6.69-70.9-4.24-12.591Z" transform="translate(-179.917 -479.3)"/><g transform="translate(0 79.422)"><path class="k" d="M197.615,561.881v1.162s20.07,8.039,20.259,11.816l-37.974-.678V561.3A20.881,20.881,0,0,0,197.615,561.881Z" transform="translate(-179.9 -561.3)"/><g transform="translate(0.283 9.686)"><path class="n" d="M180.2,574.4l.188-3.1,36.089,1.743s1.7.775,1.413,2.034Z" transform="translate(-180.2 -571.3)"/></g></g></g><g transform="translate(56.725 280.883)"><path class="m" d="M159.194,490.827,159.1,567.15l16.584,1.743,5.465-78.55-3.015-4.843Z" transform="translate(-158.817 -485.5)"/><g transform="translate(0 79.519)"><path class="k" d="M176.326,568.181v1.162s19.976,8.039,20.165,11.817l-37.691-.678V567.6A20.126,20.126,0,0,0,176.326,568.181Z" transform="translate(-158.8 -567.6)"/><g transform="translate(0 9.782)"><path class="n" d="M158.8,580.8l.188-3.1,36.089,1.743s1.7.775,1.413,2.034Z" transform="translate(-158.8 -577.7)"/></g></g></g><g transform="translate(78.303 42.132)"><path class="n" d="M184.056,240.162a1.182,1.182,0,0,1-1.225,1.162,1.1,1.1,0,0,1-1.131-1.162A1.182,1.182,0,0,1,182.925,239,1.1,1.1,0,0,1,184.056,240.162Z" transform="translate(-181.7 -239)"/></g><g transform="translate(73.027 41.939)"><path class="n" d="M176.1,248.2a9.468,9.468,0,0,1,2.544-.291c.377,0,.754-.1.848-.387a2.162,2.162,0,0,0-.188-1.259c-.283-.969-2.073-7.167-2.073-7.458.094.1,2.356,6.3,2.733,7.264a2.4,2.4,0,0,1,.094,1.646,1,1,0,0,1-.66.581,1.793,1.793,0,0,1-.66.1A8.221,8.221,0,0,1,176.1,248.2Z" transform="translate(-176.1 -238.8)"/></g><g transform="translate(58.704 63.053)"><path class="k" d="M176.165,264.668A24.193,24.193,0,0,1,160.9,260.6s4.052,8.523,15.359,8.039Z" transform="translate(-160.9 -260.6)"/></g><g transform="translate(69.578 55.204)"><path class="n" d="M172.5,252.5c.188-.1.848,1.453,2.638,2.034s3.392-.291,3.486-.1c.094.1-.283.484-.942.775a4.5,4.5,0,0,1-2.827.194,4.192,4.192,0,0,1-2.167-1.743C172.4,252.984,172.4,252.5,172.5,252.5Z" transform="translate(-172.44 -252.495)"/></g><g transform="translate(66.619 42.12)"><path class="n" d="M169.3,240.065a1.251,1.251,0,0,0,1.131,1.259,1.17,1.17,0,0,0,1.225-1.065A1.251,1.251,0,0,0,170.525,239,1.1,1.1,0,0,0,169.3,240.065Z" transform="translate(-169.3 -238.987)"/></g><g transform="translate(42.759 44.166)"><path class="o" d="M152.1,244.393c0-.872-.848-2.906-1.6-3.1-2.167-.484-6.125-.484-6.5,5.23-.471,7.845,7.35,6.683,7.35,6.489S151.914,247.4,152.1,244.393Z" transform="translate(-143.978 -241.1)"/><g transform="translate(2.847 2.518)"><path class="p" d="M150.3,250a1.023,1.023,0,0,1-.377.194,1.811,1.811,0,0,1-1.037,0,3.435,3.435,0,0,1-1.319-3.1,4.508,4.508,0,0,1,.471-1.937c.283-.581.66-.969,1.036-.969a.685.685,0,0,1,.754.387c.094.194,0,.387.094.387,0,0,.188-.1.094-.484a.535.535,0,0,0-.283-.484,1.054,1.054,0,0,0-.754-.291,1.888,1.888,0,0,0-1.413,1.162,3.987,3.987,0,0,0-.565,2.131c0,1.55.66,3.1,1.79,3.487a1.635,1.635,0,0,0,1.225-.1C150.3,250.189,150.3,250,150.3,250Z" transform="translate(-147 -243.7)"/></g></g><g transform="translate(40.895 57.627)"><path class="a" d="M148.879,262.652c0,.1-.66-.1-1.508-.484a10.077,10.077,0,0,1-3.015-2.325,9.852,9.852,0,0,1-1.979-3.293A4.766,4.766,0,0,1,142,255c.188-.1.754,2.325,2.733,4.552C146.711,261.683,148.973,262.458,148.879,262.652Z" transform="translate(-142 -254.997)"/></g><g transform="translate(72.273 82.328)"><path class="m" d="M287.667,317.9a2.507,2.507,0,0,0-.377,2.421,4.959,4.959,0,0,0,1.508,1.647,14.128,14.128,0,0,0,2.544-3.68" transform="translate(-181.755 -281.676)"/><path class="m" d="M282.841,316.5a2.641,2.641,0,0,0-.942,2.325,3.417,3.417,0,0,0,1.131,1.937,16.552,16.552,0,0,0,3.392-3" transform="translate(-181.452 -281.632)"/><path class="m" d="M266.1,306.656s15.077-2.228,17.432-.969c2.356,1.162,9.046,7.07,9.046,7.07s2.262,6.489.848,6.78-2.921-2.131-2.921-2.131l-1.885-3.584-8.48-2.131-14.04,1.259Z" transform="translate(-180.541 -281.28)"/><path class="m" d="M261.613,305.779c-11.684.387-40.235,3.971-46.36,3C209.128,307.91,175.3,280.5,175.3,280.5l3.392,21.115,21.955,23.149s6.784,3.293,18.469,2.809c11.778-.484,44.1-11.72,44.1-11.72.188.29,5.654,2.906,8.386,2.906,2.733-.1,5.842-2.325,8.292-1.937,2.356.291,7.256.678,7.821-.194a2.106,2.106,0,0,0,0-2.712c-.848-.775-4.806-1.55-7.633-2.324a11.243,11.243,0,0,1-4.24-2.034" transform="translate(-175.3 -280.5)"/></g><g transform="translate(36.56 148.965)"><path class="q" d="M158.224,353.174l.66,6.2S148.236,380,148.236,391.045,137.4,491.1,137.4,491.1s63.51,2.518,69.634-3.293l6.125-5.811,10.648-3.39L201.569,355.789V349.3Z" transform="translate(-137.4 -349.3)"/><g transform="translate(60.023 33.803)"><path class="k" d="M201.288,384.2a.765.765,0,0,0,.094.291c0,.194.094.387.094.678.094.678.188,1.647.377,2.809.377,2.421.848,5.908,1.413,10.267,1.225,8.62,3.015,20.534,5.277,33.609,2.356,13.076,4.711,24.892,6.5,33.415.942,4.262,1.7,7.652,2.167,10.073.283,1.162.471,2.034.565,2.712a1.94,1.94,0,0,1,.094.678v.29a.3.3,0,0,0-.094-.194,6.294,6.294,0,0,1-.188-.678c-.188-.678-.377-1.55-.66-2.712-.565-2.325-1.413-5.811-2.356-10.073-1.885-8.523-4.335-20.243-6.69-33.415-2.261-13.076-4.052-24.989-5.183-33.706-.565-4.359-.942-7.845-1.225-10.267-.094-1.162-.188-2.131-.283-2.809a2.189,2.189,0,0,0-.094-.775C201.288,384.3,201.288,384.2,201.288,384.2Z" transform="translate(-201.1 -384.2)"/></g><g transform="translate(18.846 44.844)"><path class="k" d="M157.4,395.6s.094.194.283.678a14.088,14.088,0,0,1,.565,2.034c.565,1.84,1.225,4.359,2.167,7.458,1.79,6.3,4.429,14.916,7.632,24.408s6.408,17.918,8.763,24.02c1.225,3,2.167,5.424,2.827,7.167.283.775.565,1.453.754,1.937s.283.678.283.678-.094-.194-.377-.678c-.188-.484-.471-1.162-.848-1.937-.754-1.647-1.79-4.068-3.015-7.167-2.45-6.005-5.748-14.528-8.952-23.923-3.2-9.492-5.748-18.112-7.538-24.5q-1.272-4.794-1.979-7.555c-.188-.872-.377-1.55-.471-2.034A2.78,2.78,0,0,1,157.4,395.6Z" transform="translate(-157.4 -395.6)"/></g><g transform="translate(22.049 9.395)"><path class="k" d="M204.9,359s-.565.1-1.7.194-2.733.194-4.711.387c-3.958.291-9.517.484-15.642.484s-11.59-.194-15.642-.387c-1.979-.1-3.581-.194-4.711-.291s-1.7-.194-1.7-.194h1.7c1.225,0,2.827.1,4.711.1,3.958.1,9.517.194,15.642.194s11.59-.194,15.642-.291c1.885-.1,3.486-.1,4.711-.194Z" transform="translate(-160.8 -359)"/></g></g><g transform="translate(37.821 70.704)"><path class="r" d="M174.132,275.862c-.283-.678,20.447,16.272,22.992,24.6,2.638,8.233,3.015,32.059,3.015,32.059l1.413,15.3-41.366,3-1.131-3L156.04,339.3l-4.24-12.882s-10.177-16.272-12.25-23.246c-2.544-8.717,1.7-17.628,1.7-17.628l9.329-10.848Z" transform="translate(-138.737 -268.694)"/><path class="r" d="M151.42,275.377s-2.261-4.358-.848-6.3c1.131-1.55,21.013.387,25.065,1.259,2.356.484,0,6.005,0,6.005Z" transform="translate(-139.394 -268.499)"/><g class="s" transform="translate(13.774 27.411)"><path d="M163.48,296.8c1.7,4.649-.754,18.887-1.131,22.374a61,61,0,0,1-2.261,9.976c-.471,1.55-.848,3.293,0,4.649,1.319,2.131,4.806,1.55,6.5,3.487a16.03,16.03,0,0,1-10.177,1.259,2.531,2.531,0,0,1-1.6-.775,3.313,3.313,0,0,1-.471-1.356,41.312,41.312,0,0,1-.471-15.206c.942-5.037,5.559-17.047,9.517-20.243" transform="translate(-153.355 -296.8)"/></g><g transform="translate(19.372 33.801)"><path class="n" d="M164.576,303.4a15.152,15.152,0,0,1-1.979,4.94,13.884,13.884,0,0,1-3.3,4.068c-.094-.1,1.413-1.937,2.827-4.359C163.54,305.531,164.388,303.3,164.576,303.4Z" transform="translate(-159.296 -303.397)"/></g><g transform="translate(47.353 28.089)"><path class="n" d="M192.392,317.743c-.094,0,.283-1.162.565-3.1a24.9,24.9,0,0,0-.094-7.458,23.626,23.626,0,0,0-2.356-6.974c-.848-1.647-1.6-2.615-1.508-2.712l.565.581c.377.387.754,1.065,1.319,1.84a21.483,21.483,0,0,1,2.638,7.07,22.016,22.016,0,0,1-.094,7.555,14.456,14.456,0,0,1-.565,2.228A3.1,3.1,0,0,1,192.392,317.743Z" transform="translate(-188.992 -297.5)"/></g><g class="s" transform="translate(13.157 7.168)"><path d="M162.688,276.287c-1.979-.194-4.523-.291-6.6-.291-1.319,0-2.827-.1-3.392-.1a27.666,27.666,0,0,0,10.742,2.131c1.7,0,8.669,0,10.459-1.259C170.321,276.481,165.7,276.384,162.688,276.287Z" transform="translate(-152.7 -275.9)"/></g><g class="s" transform="translate(46.702 38.066)"><path d="M188.3,323.006a18.955,18.955,0,0,0,4.806-15.206,21.654,21.654,0,0,1,.754,5.521,9.636,9.636,0,0,1-1.413,6.1c-1.319,1.743-1.979,2.809-4.146,3.584" transform="translate(-188.3 -307.8)"/></g></g><g transform="translate(34.227 86.241)"><path class="n" d="M199.7,337.52c.188-.387,16.3-18.887,20.259-23.439a1.687,1.687,0,0,1,2.073-.387h0a1.82,1.82,0,0,1,.471,2.809l-20.636,23.536Z" transform="translate(-138.662 -285.451)"/><path class="m" d="M213.11,328.476c.66-.969-.283-2.712-1.225-3.2s-4.523,1.55-4.523,1.55l-1.319.1s-7.067-1.453-7.35-1.356a26.112,26.112,0,0,0-5.088,3.2,13.785,13.785,0,0,0-1.885,2.228,7.265,7.265,0,0,1-4.429,2.906c-6.69.872-26.29,3.293-32.509,2.518l2.827-25.086s6.5-8.136,4.617-15.691c-.848-3.584-3.392-6.489-5.842-8.523a10.1,10.1,0,0,0-14.7,1.453c-.188.194-.283.387-.471.581-2.167,3.293-8.1,54.821-5.748,61.019s5.748,5.715,5.748,5.715,15.548-.194,26.666-2.809c9.705-2.325,20.353-5.908,22.992-6.78,1.979-.484,5.465-1.259,5.842-1.259.471,0,6.031-.484,6.784-.581a18.409,18.409,0,0,0,6.219-2.906c1.979-1.453,1.508-2.809,1.319-3.2.188-.194.377-.387.283-.387a1.935,1.935,0,0,0,.283-3,.3.3,0,0,0,.094-.194h0l.565-1.065a2.111,2.111,0,0,0-.942-2.906c.094-.194.188-.291.094-.291A18.841,18.841,0,0,0,213.11,328.476Z" transform="translate(-134.923 -284.543)"/><g transform="translate(14.054 51.498)"><path class="k" d="M4.5-.061A17.821,17.821,0,0,1,8.993.164a18.055,18.055,0,0,1-4.5.347A17.821,17.821,0,0,1,0,.286,18.055,18.055,0,0,1,4.5-.061Z" transform="translate(0 6.837) rotate(-48.669)"/></g><g transform="translate(4.878)"><path class="n" d="M162.338,302.129a9.012,9.012,0,0,1,.188-1.55,13.712,13.712,0,0,0-.188-4.262A14.425,14.425,0,0,0,159.7,290.7a13.552,13.552,0,0,0-5.748-4.746,9.553,9.553,0,0,0-7.256-.484,8.2,8.2,0,0,0-4.711,3.681,18.4,18.4,0,0,0-1.508,3.971c-.188.969-.283,1.55-.377,1.55v-.387a7.34,7.34,0,0,1,.188-1.162,13.45,13.45,0,0,1,1.319-4.068,8.49,8.49,0,0,1,1.885-2.325,10.031,10.031,0,0,1,10.648-1.162,14.648,14.648,0,0,1,5.936,4.94,15.505,15.505,0,0,1,2.638,5.908,13.293,13.293,0,0,1,0,4.359,10.288,10.288,0,0,1-.283,1.162A.341.341,0,0,1,162.338,302.129Z" transform="translate(-140.1 -284.541)"/></g><path class="t" d="M216.646,331.1s-2.544,2.615-4.146,2.809" transform="translate(-139.401 -286.004)"/><path class="t" d="M216.967,334.9a5.453,5.453,0,0,1-2.167,2.615" transform="translate(-139.534 -286.124)"/><path class="t" d="M216.538,338.9a3.581,3.581,0,0,1-2.638,1.453" transform="translate(-139.482 -286.25)"/><path class="m" d="M199,328.612c1.885-1.356,1.979-1.065,4.994-3.1,2.921-2.034,7.444-5.618,7.444-5.618s1.79-.969,1.319,2.228-4.24,5.424-4.24,5.424" transform="translate(-138.622 -285.648)"/></g><path class="a" d="M172.492,222.1s-4.24,9.492-13.192,12.979C166.179,231.4,172.492,222.1,172.492,222.1Z" transform="translate(-102.104 -196.336)"/><path class="a" d="M162.288,214.1s-4.523-.291-6.6,2.518-3.11,2.906-4.523,3.971-3.769,3.971-3.769,7.167a14.576,14.576,0,0,1,4.617-6.78,21.2,21.2,0,0,0,4.146-4.068C157.765,214.584,162.288,214.1,162.288,214.1Z" transform="translate(-101.417 -196.084)"/><path class="k" d="M187.626,236.593s.565-11.042-1.508-16.272c-5.465-13.947-29.022-17.337-38.916.581-8.2,14.916-19.034,61.6-8.952,76.9,9.234.291,14.417.291,14.417.291,6.125-2.421,4.617-61.5,4.617-61.5,7.915-1.743,16.961-8.814,19.317-12.107C178.674,226.035,184.517,231.072,187.626,236.593Z" transform="translate(-100.654 -195.913)"/><path class="a" d="M175.786,223.3s-8.763,10.073-18.186,10.17C166.552,231.823,175.786,223.3,175.786,223.3Z" transform="translate(-102.006 -196.374)"/><path class="a" d="M183,225a16.333,16.333,0,0,1,6.031,6.877C189.125,228.971,185.261,225.581,183,225Z" transform="translate(-103.472 -196.427)"/><path class="a" d="M139.1,297.289s-8.763-9.492,2.356-55.789C139.382,257.869,132.22,281.114,139.1,297.289Z" transform="translate(-100.748 -196.946)"/><path class="a" d="M142.5,238.779s3.769-22.858,18.846-28.379C150.038,216.6,144.008,229.771,142.5,238.779Z" transform="translate(-101.134 -195.968)"/><path class="a" d="M187.388,257s0,21.986,6.69,32.737C188.425,282.667,186.54,269.107,187.388,257Z" transform="translate(-103.714 -197.433)"/></g></g><g transform="translate(171.184 66.762)"><g transform="translate(31.272 26.944)"><path class="k" d="M314.834,290.425c0,.094-.471.283-1.319.471a9.929,9.929,0,0,1-3.486.189,11.347,11.347,0,0,1-3.3-1.037c-.754-.471-1.225-.754-1.131-.848a15.824,15.824,0,0,0,4.523,1.413C312.761,290.99,314.834,290.236,314.834,290.425Z" transform="translate(-305.587 -289.195)"/></g><g transform="translate(29.288 29.66)"><path class="k" d="M303.5,295.868a4.01,4.01,0,0,1,1.413-2.544,4.062,4.062,0,0,1,2.638-1.225,8.854,8.854,0,0,0-2.261,1.6C304.159,294.737,303.687,295.962,303.5,295.868Z" transform="translate(-303.482 -292.078)"/></g><path class="u" d="M273.531,321.1l53.71.094,3.3,72.084L272.4,393.09Z" transform="translate(-272.4 -264.092)"/><g transform="translate(17.621 32.885)"><path class="v" d="M291.1,325.182a10.941,10.941,0,0,1,.094-1.225c.094-.754.283-1.885.471-3.2.471-2.733,1.131-6.407,2.073-10.459.848-4.052,1.6-7.727,2.167-10.459.283-1.225.471-2.356.66-3.2l.283-1.131a10.949,10.949,0,0,1-.094,1.225c-.094.754-.283,1.885-.471,3.2-.471,2.733-1.131,6.408-2.073,10.459-.848,4.052-1.6,7.727-2.167,10.459-.283,1.225-.471,2.356-.66,3.2C291.288,324.711,291.194,325.182,291.1,325.182Z" transform="translate(-291.1 -295.5)"/></g><g transform="translate(29.776 28.268)"><path class="v" d="M312.952,325.464s-.188-.471-.471-1.319c-.283-.942-.66-2.167-1.036-3.675-.848-3.109-1.979-7.444-3.2-12.344-1.225-4.806-2.356-9.14-3.11-12.344-.377-1.508-.66-2.827-.848-3.769-.188-.848-.283-1.413-.283-1.413s.188.471.471,1.319c.283.942.66,2.167,1.037,3.675.848,3.11,1.979,7.444,3.2,12.344,1.225,4.806,2.356,9.14,3.11,12.344.377,1.508.66,2.827.848,3.769Q313.093,325.464,312.952,325.464Z" transform="translate(-304 -290.6)"/></g><path class="w" d="M330.7,321.2l5.088.094,5.182,71.613-7.538.377Z" transform="translate(-275.765 -264.098)"/><g transform="translate(139.113 33.349)"><ellipse class="n" cx="5.842" cy="0.283" rx="5.842" ry="0.283" transform="translate(0 11.668) rotate(-86.98)"/></g><path class="x" d="M296.473,284.518l-3.015,1.036a1.71,1.71,0,0,1-2.261-1.036v-.188c-.283-.848.471-1.79,1.413-2.073l3.109-.66a1.5,1.5,0,0,1,1.79,1.037v.094A1.652,1.652,0,0,1,296.473,284.518Z" transform="translate(-273.482 -261.81)"/><path class="x" d="M381.2,260.6" transform="translate(-278.68 -260.6)"/><g transform="translate(27.326 25.818)"><path class="y" d="M312.888,325.378c0-9.423-8.48-34.11-9.988-36.278" transform="translate(-301.487 -288.063)"/><path class="y" d="M314.592,325.314h-3.486c0-8.952-8.2-33.168-9.706-35.241L304.227,288C305.923,290.45,314.592,315.514,314.592,325.314Z" transform="translate(-301.4 -288)"/></g><g transform="translate(15.925 27.891)"><path class="y" d="M291.1,324.9c0-8.669,6.5-34.2,6.5-34.2" transform="translate(-289.404 -290.229)"/><path class="y" d="M292.786,324.876H289.3c0-8.857,6.219-33.545,6.5-34.676l3.392.848C299.1,291.331,292.786,316.489,292.786,324.876Z" transform="translate(-289.3 -290.2)"/></g><path class="x" d="M302.5,288.109l-7.35,1.131a2.1,2.1,0,0,1-2.45-1.413h0a1.626,1.626,0,0,1,1.6-1.979l7.444-.848a1.9,1.9,0,0,1,2.073,1.319h0A1.552,1.552,0,0,1,302.5,288.109Z" transform="translate(-273.568 -262.008)"/><path class="x" d="M303.208,291.62l-7.161,1.131a2.267,2.267,0,0,1-2.45-1.319h0c-.283-.942.471-1.79,1.6-1.885l7.256-.848a1.967,1.967,0,0,1,2.073,1.319h0A1.521,1.521,0,0,1,303.208,291.62Z" transform="translate(-273.62 -262.221)"/><path class="x" d="M299.608,295.338l-4.429,1.131a1.691,1.691,0,0,1-1.885-1.319h0a1.361,1.361,0,0,1,1.037-1.885l4.617-.565c.471-.094,1.036.471,1.225,1.131h0C300.362,294.584,300.174,295.244,299.608,295.338Z" transform="translate(-273.601 -262.452)"/><g transform="translate(57.762 57.196)"><line class="z" x2="3.015" y2="67.278" transform="translate(0.094)"/><path class="z" d="M333.7,397.5l3.11-4.9,4.523,4.429" transform="translate(-333.7 -325.416)"/></g><g transform="translate(7.538 81.907)"><g transform="translate(7.32)"><path class="a" d="M301.013,372.378a11.871,11.871,0,0,0,11.873-9.894c.094-.377.094-.754.66-.754.471,0,.565.188.471.565a12.988,12.988,0,1,1-14.511-14.7c.283,0,.66-.283.754.283.094.471-.094.754-.66.754a10.876,10.876,0,0,0-7.256,3.863,11.341,11.341,0,0,0-2.45,11.684,11.518,11.518,0,0,0,8.857,7.915A9.291,9.291,0,0,0,301.013,372.378Z" transform="translate(-288.168 -347.525)"/><path class="a" d="M301.9,369.968c-5.371-.094-9.329-3.769-9.705-8.48a9.352,9.352,0,0,1,7.538-9.894c.283,0,.66-.283.66.094.094.471-.377.377-.66.471a8.658,8.658,0,0,0,2.073,17.149,8.613,8.613,0,0,0,7.915-6.5,1.194,1.194,0,0,0,.094-.565c0-.283.188-.377.377-.283.283,0,.188.283.188.471a9.833,9.833,0,0,1-.754,2.356A9.062,9.062,0,0,1,301.9,369.968Z" transform="translate(-288.399 -347.754)"/><path class="a" d="M304.26,363.157c.188.565.377,1.037-.283,1.413-1.131.66-1.6.754-2.073.188-.377-.377-.565-.283-.848-.094-.565.377-1.131.66-1.7.189a1.482,1.482,0,0,1-.565-1.79,2.76,2.76,0,0,1,1.885-2.261.658.658,0,0,0,.565-.754,6.969,6.969,0,0,1,.754-2.733,3.386,3.386,0,0,1,.66-.942,1.031,1.031,0,0,1,1.225-.377c.471.188.471.565.565,1.036a4.81,4.81,0,0,1-.283,1.979c-.188.66-.565,1.413-.754,2.073-.188.377-.377.754-.565,1.225s-.565,1.131-.094,1.508.848-.188,1.225-.377C303.977,363.251,304.072,363.251,304.26,363.157Zm-3.2-1.6a2.663,2.663,0,0,0-1.225,1.7c-.094.283-.094.66.283.754.377.188.565-.094.754-.377C301.339,362.968,301.056,362.309,301.056,361.555Zm1.319-.565a9.824,9.824,0,0,0,1.037-3.2c0-.188.188-.565-.094-.66s-.377.283-.471.471A10.542,10.542,0,0,0,302.375,360.99Z" transform="translate(-288.777 -348.01)"/><path class="a" d="M314.418,359.563c-.565.094-.565-.377-.565-.66a11.28,11.28,0,0,0-2.544-5.842,11.549,11.549,0,0,0-7.161-4.24c-.283-.094-.565,0-.754-.283-.188-.188-.094-.565,0-.848s.377-.094.565-.094A12.9,12.9,0,0,1,314.983,358.9C314.983,359.375,314.983,359.657,314.418,359.563Z" transform="translate(-289.041 -347.526)"/><path class="a" d="M303.76,351.6a9.251,9.251,0,0,1,6.973,6.031,8.821,8.821,0,0,1,.377,1.508c0,.188.188.471-.188.565-.283,0-.377-.188-.377-.471a8.643,8.643,0,0,0-6.973-7.067c-.283,0-.471-.094-.471-.377C303.288,351.5,303.571,351.6,303.76,351.6Z" transform="translate(-289.03 -347.759)"/></g><g transform="translate(0 26.862)"><path class="aa" d="M300.2,384.578a3.314,3.314,0,0,1,2.45-3.015c.283-.094.283-.283.283-.471a9.626,9.626,0,0,1,.942-3.675,3.28,3.28,0,0,1,1.036-1.225.867.867,0,0,1,1.319.565,4.489,4.489,0,0,1-.188,2.733,22.5,22.5,0,0,1-1.413,3.486,3.905,3.905,0,0,0-.283,1.508c0,.471.283.565.66.377a1.879,1.879,0,0,0,1.225-1.413c.094-.471.283-1.036.377-1.508a.9.9,0,0,1,.754-.754c.565-.094.754.094.66.66a11.109,11.109,0,0,0-.565,2.544c0,.283-.188.66.094.848s.565-.094.848-.283a1,1,0,0,0,.565-1.319,5.706,5.706,0,0,1,0-1.79c.094-.471.471-.66,1.037-.565.471.094.377.471.377.754-.094.942-.094,1.885-.094,2.827.471-1.036.848-1.979,1.225-3.015a.706.706,0,0,1,.66-.565c.565,0,.848.283.66.848-.094.377-.377.754-.471,1.131s-.188.754.094,1.037c.377.283.754.094,1.131,0,.283-.094.283-.283.283-.565a6.316,6.316,0,0,1,0-1.885.839.839,0,0,1,1.037-.565c.471.094.377.377.377.66-.094.942-.094,1.885-.094,2.921.188-.565.471-1.036.66-1.6a10.461,10.461,0,0,1,.66-1.508.762.762,0,0,1,1.036-.471c.471.189.283.565.188.942a6.326,6.326,0,0,0-.565,1.413c0,.565.283.754.848.754a.445.445,0,0,0,.471-.471,6.253,6.253,0,0,1,.565-1.885,1.136,1.136,0,0,1,.471-.471.8.8,0,0,1,.66,0,.444.444,0,0,1,.094.565,7.078,7.078,0,0,0-.471,2.45c0,.283,0,.66.377.754s.565-.283.66-.471a22,22,0,0,0,.66-2.356,1.2,1.2,0,0,1,.66-.848c.188-.094.471-.189.66,0s.094.377.094.565c-.188,1.131-.471,2.356-.565,3.486v.094h.094a5.818,5.818,0,0,0,1.7-1.7c.471.848.377,1.131-.283,1.79a16.368,16.368,0,0,0-2.261,3.392,4.722,4.722,0,0,1-.754,1.319,2.392,2.392,0,0,1-.942.754,1.662,1.662,0,0,1-1.79-.188c-.377-.377-.283-1.036.094-1.7a12.458,12.458,0,0,1,2.356-2.638l.283-.283a.346.346,0,0,0,.094-.283c-.094-.094-.189,0-.283,0-1.131.377-1.131.377-1.979-.471-.094-.188-.283-.094-.377-.094-1.037.189-1.319.094-1.79-.754-.283.377-.565.848-.848,1.225a.733.733,0,0,1-.942.377c-.377-.094-.471-.377-.565-.754s-.283-.283-.565-.188c-1.037.283-1.508.188-1.979-.754-.283.377-.471.754-.754,1.131-.189.283-.471.66-.942.565s-.565-.471-.66-.848a12.252,12.252,0,0,1-1.6.754c-.565.094-1.036.094-1.319-.471-.094-.188-.189-.188-.283-.094a1.97,1.97,0,0,0-.565.377,1.257,1.257,0,0,1-1.79-.377c-.188-.189-.283-.283-.471-.094l-.283.283c-1.037.66-1.6.66-2.45-.283A8.089,8.089,0,0,0,300.2,384.578Zm4.146-2.544a11.552,11.552,0,0,0,1.225-3.863c0-.283.188-.754-.188-.754-.377-.094-.471.377-.471.66A9.4,9.4,0,0,0,304.346,382.034Zm-1.319,1.6a3.207,3.207,0,0,0-.094-.942c0-.188-.094-.283-.283-.188a2.917,2.917,0,0,0-1.131,2.167.481.481,0,0,0,.377.471.444.444,0,0,0,.565-.094A1.524,1.524,0,0,0,303.027,383.636Zm17.715,4.052a5.532,5.532,0,0,0-1.79,2.167c-.094.283,0,.471.377.377a.941.941,0,0,0,.471-.377A4.6,4.6,0,0,0,320.742,387.688Z" transform="translate(-281.543 -376.034)"/><path class="aa" d="M299.057,384.577c.094.377.094.754.188,1.131a3.185,3.185,0,0,1-1.131.565,1.111,1.111,0,0,1-1.413-.565,2.365,2.365,0,0,1-.094-1.79c.094-.377.283-.66.377-1.036a9.6,9.6,0,0,0-1.979,2.827c-.094.094-.094.283-.188.377-.094.188-.283.377-.471.283a.405.405,0,0,1-.377-.377c-.094-.377-.189-.377-.471-.188a5.691,5.691,0,0,1-2.827.66,1.234,1.234,0,0,1-1.131-.565c-.188-.283-.283-.188-.471-.094a4.442,4.442,0,0,1-1.413.565.911.911,0,0,1-1.131-.471c-.094-.188-.188-.188-.377-.094-.094,0-.094.094-.188.094-1.131.66-1.508.565-2.356-.471a2.861,2.861,0,0,1-.66.471,1.554,1.554,0,0,1-2.544-1.508,3.114,3.114,0,0,1,2.356-2.827c.283-.094.377-.188.377-.565a9.616,9.616,0,0,1,.942-3.581,2.2,2.2,0,0,1,.942-1.131c.754-.471,1.319-.283,1.6.565a5.842,5.842,0,0,1-.188,2.544,23.567,23.567,0,0,1-1.413,3.581,2.686,2.686,0,0,0-.188,1.508c.094.377.283.565.66.377.66-.283,1.225-.66,1.319-1.413.094-.565.283-1.037.377-1.6a.868.868,0,0,1,1.037-.66c.283,0,.377.283.283.565-.188.66-.377,1.413-.565,2.073a2.608,2.608,0,0,0-.094.848c0,.189-.094.471.188.565a.693.693,0,0,0,.754-.377,1.307,1.307,0,0,1,.66-.754,12.979,12.979,0,0,0,2.073-2.45,1.081,1.081,0,0,1,1.131-.471c.377.094.565.471.283.66-.848.754-.471,1.508-.283,2.356a1.839,1.839,0,0,0,.094.66c.377-.188.66-.283,1.036-.471a.7.7,0,0,0,.283-.66,20.381,20.381,0,0,1,.66-4.806,4.857,4.857,0,0,1,.848-1.885c.188-.188.377-.471.565-.565a1.476,1.476,0,0,1,1.508-.188,1.165,1.165,0,0,1,.377,1.319,15.083,15.083,0,0,1-1.6,4.335l-.283.565c-.094.094-.188.188-.094.283s.094-.094.188-.094a5.837,5.837,0,0,1,1.319-1.319.717.717,0,0,1,.848-.094.591.591,0,0,1,.189.754l-.283,1.131c-.094.188-.094.377-.189.565-.094.377-.377.942,0,1.225C298.4,385.236,298.68,384.671,299.057,384.577Zm-3.863-2.356a28.96,28.96,0,0,0,1.6-3.958,1.394,1.394,0,0,0,0-1.225A9.571,9.571,0,0,0,295.194,382.221Zm-10.648-.188a11.552,11.552,0,0,0,1.225-3.863c0-.283.188-.754-.188-.754-.283-.094-.377.377-.471.66A11.2,11.2,0,0,0,284.546,382.032Zm-1.319,1.319V382.6c0-.377-.094-.377-.377-.188a2.681,2.681,0,0,0-1.131,1.979c0,.283,0,.565.283.66a.631.631,0,0,0,.754-.283A1.3,1.3,0,0,0,283.227,383.352Zm8.009.188c-.377.471-.754.848-1.037,1.225-.094.094-.188.094-.094.283a.989.989,0,0,0,.848.471.623.623,0,0,0,.565-.66A3.325,3.325,0,0,0,291.236,383.54Z" transform="translate(-280.4 -376.032)"/><path class="aa" d="M288.742,380.7c-.565,0-.942-.283-.942-.754a.968.968,0,0,1,1.036-.942c.565,0,.942.283.942.754A.919.919,0,0,1,288.742,380.7Z" transform="translate(-280.827 -376.203)"/><path class="aa" d="M308.542,380.7c-.565,0-.942-.283-.942-.754a.968.968,0,0,1,1.037-.942c.565,0,.942.283.942.754A.919.919,0,0,1,308.542,380.7Z" transform="translate(-281.97 -376.203)"/></g></g></g><g transform="translate(180.425 0.283)"><g class="j" transform="translate(0 0)"><g transform="translate(66.676 359.433)"><path class="ab" d="M356.317,585s-5.936,0-6.219,5.521.471,3,24.028,3.487c23.651.484,31.189,1.259,32.32.194s1.319-4.746.565-6.586-4.335-1.84-4.335-1.84Z" transform="translate(-350.061 -567.469)"/><path class="ac" d="M376.32,566.9s-2.073,8.523-10.082,12.01c-8.1,3.487-11.5,2.131-12.438,10.364h52.391a31.292,31.292,0,0,0-2.45-19.662Z" transform="translate(-350.277 -566.9)"/></g><g transform="translate(84.862 364.566)"><path class="ab" d="M375.617,587.6s-5.936,0-6.219,5.521.471,3,24.028,3.487c23.651.484,31.189,1.259,32.32.194s1.319-4.746.565-6.586-4.334-1.84-4.334-1.84Z" transform="translate(-369.361 -572.684)"/><path class="ac" d="M394.772,572.3s-1.225,5.715-9.234,9.2c-8.1,3.487-11.5,2.131-12.438,10.364h52.391a31.292,31.292,0,0,0-2.45-19.662Z" transform="translate(-369.577 -572.2)"/></g><path class="ad" d="M420.221,562.058s-2.261.775-10.93,1.259c-2.733.194-6.031.291-10.082.291H392.33c-1.885,0-3.769-.1-5.465-.194a121.247,121.247,0,0,1-16.113-1.84c.754-6.2,4.429-15.206,4.994-30.026.565-14.916-3.958-44.941-5.183-86.977-.754-23.149-.66-40.68-.471-51.818.188-9.008.471-13.754.471-13.754h39.2s-.188,6.489-.377,16.369c-.377,25.57-.754,74.095,2.45,92.4C416.169,513.242,420.221,562.058,420.221,562.058Z" transform="translate(-284.533 -201.56)"/><path class="ae" d="M409.851,564.417c-2.733.194-6.031.291-10.082.291a123,123,0,0,1-12.344-.291,202.17,202.17,0,0,0,1.225-34.578c-1.131-20.921-4.146-51.043-5.183-76.807C382.431,427.366,381.3,410.9,381.3,410.9l11.025,16.466Z" transform="translate(-285.188 -202.562)"/><path class="af" d="M430.62,569.884c-15.171,1.162-40.8,0-40.8,0s-1.508-.581.471-6.2c.188-.581.471-1.259.754-2.034,3.015-7.555.188-21.018,0-36.612s-3.581-39.808-7.161-77.969c-2.073-22.083-3.486-41.261-4.335-53.368-.565-8.814-.848-14.044-.848-14.044l21.861-.581,27.232-.678a44.265,44.265,0,0,1,.094,17.24c-1.79,11.042-6.313,21.115-6.879,29.347-.848,12.4.283,23.536,1.979,43,1.6,19.371-1.6,30.413,1.413,50.849C427.416,539.181,430.62,569.884,430.62,569.884Z" transform="translate(-285.038 -201.541)"/><path class="ae" d="M428.044,395.928c-5.936.291-14.228.291-24.4-.194-9.329-.387-18.563-1.162-25.724-1.84-3.11-.291-5.842-.581-7.915-.872.188-9.2.377-14.044.377-14.044h29.3l28.268-.678A46.26,46.26,0,0,1,428.044,395.928Z" transform="translate(-284.535 -201.538)"/><path class="x" d="M422.739,282.6s-14.134,11.816-27.7,3.1c0,0-1.7-8.427-.754-14.238.094-.678.283-1.453.377-2.034,1.131-6.489,1.6-10.267,1.6-10.267h0c.754-.194,24.217-5.133,24.028-4.359C416.709,272.328,422.739,282.6,422.739,282.6Z" transform="translate(-285.921 -197.652)"/><path class="k" d="M417.415,258.688c-2.827,3.584-11.5,10.073-22.615,10.848,1.131-6.489,1.6-10.267,1.6-10.267h0C396.967,259.172,418.263,257.622,417.415,258.688Z" transform="translate(-285.967 -197.765)"/><g transform="translate(98.59 8.032)"><path class="ag" d="M389.833,256.158s24.311,11.042,30.813-4.649,13.946-24.8-1.319-32.544-20.824-3.1-24.217,1.647S382.577,252.962,389.833,256.158Z" transform="translate(-384.113 -204.43)"/><path class="ah" d="M421.078,252.285s-1.7-2.034-.188-7.07c1.6-5.037-3.863-3.39-3.863-3.39s-3.2,1.743-3.109-.581,4.052-11.816,1.979-14.238c-2.073-2.325-18.092-.484-19.505-13.366-.094-1.162-.471-3.39.377-4.165,1.413-1.356,2.827-.581,3.581-.387,5.654,1.259,3.675-.291,12.061.969,8.48,1.259,19.788,11.623,18,23.536C428.993,242.793,421.078,252.285,421.078,252.285Z" transform="translate(-384.639 -204.237)"/><path class="ai" d="M422.419,247.751s4.523-4.455.471-7.167c-3.392-2.228-8.669,3.39-5.936,6.78C419.592,250.85,422.419,247.751,422.419,247.751Z" transform="translate(-385.792 -205.224)"/><ellipse class="aj" cx="1.131" cy="1.162" rx="1.131" ry="1.162" transform="translate(9.301 26.836)"/><ellipse class="aj" cx="1.131" cy="1.162" rx="1.131" ry="1.162" transform="translate(19.572 30.711)"/><path class="ak" d="M400.179,234.3s-1.6,3.584-3.486,7.361a1.292,1.292,0,0,0,.565,1.743l.377.194" transform="translate(-384.659 -205.042)"/><path class="a" d="M393.977,247.1c1.036.387,4.994,1.259,7.256.678a.211.211,0,0,1,.283.291,4.9,4.9,0,0,1-5.088,3c-2.356-.291-2.733-2.712-2.827-3.681C393.6,247.2,393.788,247,393.977,247.1Z" transform="translate(-384.487 -205.444)"/><path class="a" d="M398,212.9s.283,7.555,10.271,10.751C399.979,219.486,398,212.9,398,212.9Z" transform="translate(-384.741 -204.369)"/><path class="a" d="M405.8,219.5s1.508,3.971,7.444,3.68C408.062,222.5,405.8,219.5,405.8,219.5Z" transform="translate(-385.192 -204.577)"/><path class="a" d="M426.971,244.252s7.067-13.754-.471-23.052C430.552,224.106,433.661,233.694,426.971,244.252Z" transform="translate(-386.386 -204.63)"/><path class="al" d="M421.277,245.4a1.818,1.818,0,0,0-.377-3" transform="translate(-386.063 -205.297)"/><g transform="translate(10.338 4.865)"><path class="v" d="M394.9,219.077a12.487,12.487,0,0,1,7.915-1.55,30.333,30.333,0,0,1,25.347,23.633s2.638-4.455,3.3-7.458c.471-2.034,2.073-14.238-9.046-20.921C422.32,212.781,405.925,201.255,394.9,219.077Z" transform="translate(-394.9 -209.115)"/></g><g transform="translate(10.338 4.865)"><path class="am" d="M394.9,219.077a11.913,11.913,0,0,1,8.857-1.84c7.538,1.453,20.824,8.33,24.311,23.923,0,0,2.638-4.455,3.3-7.458.471-2.034,2.073-14.238-9.046-20.921C422.32,212.781,405.925,201.255,394.9,219.077Z" transform="translate(-394.9 -209.115)"/></g><path class="an" d="M426.87,238.581c-2.167-7.07-6.6-12.688-11.5-17.822s-13.663-11.138-19.882-14.528a13.775,13.775,0,0,0-5.936-2.131c-2.073-.1-4.429.775-5.371,2.712-1.225,2.421,2.261,7.458,4.052,9.492a66.5,66.5,0,0,0,5.465,5.327s1.037-4.746,8.669-3.971C412.641,218.919,427.058,238.968,426.87,238.581Z" transform="translate(-383.929 -204.093)"/><g transform="translate(20.514 5.761)"><path class="a" d="M418.892,216.975a37.574,37.574,0,0,0-6.125-4.359c-3.675-1.937-7.067-2.325-7.067-2.518a4.686,4.686,0,0,1,2.167.194,21.757,21.757,0,0,1,5.088,1.84,19.939,19.939,0,0,1,4.429,3.1A8.4,8.4,0,0,1,418.892,216.975Z" transform="translate(-405.7 -210.04)"/></g></g><path class="x" d="M352.446,299.643l-13.569,6.3L319.372,289.57l-4.523-4.746s-6.407-3.584-6.879-3.584-7.067,0-8.763.1-4.334-1.937-4.334-1.937a1.969,1.969,0,0,0-.754,2.421l-2.261,1.065s-.848.775-.66,1.55,1.885,1.55,1.885,1.55c-.754,1.453,1.037,3.293,1.037,3.293a2.408,2.408,0,0,0,.471,3.293c-1.413,1.259-1.319,1.937-.754,2.906.471.969,2.45,1.259,3.958,1.84a102.98,102.98,0,0,0,12.438,1.356c.848-.1,2.167,1.162,2.167,1.162,2.827,3.293,11.873,14.044,15.548,18.112,4.429,4.843,7.444,7.458,10.93,6.974s23.463-10.17,23.463-10.17S357.535,300.224,352.446,299.643Z" transform="translate(-279.985 -198.428)"/><g transform="translate(24.77 90.458)"><path class="k" d="M314.834,290.459c0,.1-.471.291-1.319.484a9.667,9.667,0,0,1-3.486.194,11.128,11.128,0,0,1-3.3-1.065c-.754-.484-1.225-.775-1.131-.872a15.53,15.53,0,0,0,4.523,1.453C312.761,291.04,314.834,290.265,314.834,290.459Z" transform="translate(-305.587 -289.194)"/></g><g transform="translate(22.786 93.251)"><path class="k" d="M303.5,295.973a4.166,4.166,0,0,1,1.413-2.615,4,4,0,0,1,2.638-1.259,8.846,8.846,0,0,0-2.261,1.647C304.159,294.811,303.687,296.07,303.5,295.973Z" transform="translate(-303.482 -292.078)"/></g><path class="u" d="M273.531,321.1l53.71.1,3.3,74.095L272.4,395.1Z" transform="translate(-278.902 -199.739)"/><g transform="translate(11.119 96.566)"><path class="v" d="M291.1,326.01a11.555,11.555,0,0,1,.094-1.259c.094-.775.283-1.937.471-3.293.471-2.809,1.131-6.586,2.073-10.751.848-4.165,1.6-7.942,2.167-10.751.283-1.259.471-2.421.66-3.293l.283-1.162a11.564,11.564,0,0,1-.094,1.259c-.094.775-.283,1.937-.471,3.293-.471,2.809-1.131,6.586-2.073,10.751-.848,4.165-1.6,7.942-2.167,10.751-.283,1.259-.471,2.421-.66,3.293C291.288,325.525,291.194,326.01,291.1,326.01Z" transform="translate(-291.1 -295.5)"/></g><g transform="translate(23.274 91.82)"><path class="v" d="M312.952,326.437s-.188-.484-.471-1.356c-.283-.969-.66-2.228-1.036-3.777-.848-3.2-1.979-7.652-3.2-12.688-1.225-4.94-2.356-9.4-3.11-12.688-.377-1.55-.66-2.906-.848-3.874-.188-.872-.283-1.453-.283-1.453s.188.484.471,1.356c.283.969.66,2.228,1.037,3.777.848,3.2,1.979,7.652,3.2,12.688,1.225,4.94,2.356,9.4,3.11,12.688.377,1.55.66,2.906.848,3.874Q313.093,326.437,312.952,326.437Z" transform="translate(-304 -290.6)"/></g><path class="w" d="M330.7,321.2l5.088.1,5.182,73.611-7.538.387Z" transform="translate(-282.267 -199.742)"/><g transform="translate(71.707 74.385)"><path class="ao" d="M383.668,281.3h-7.256c-2.356.872-21.013,17.24-21.013,17.24l10.554,17.144,13.757-8.233Z" transform="translate(-355.4 -272.873)"/><path class="ao" d="M377.062,281.026l15.925-6.2s2.356,5.036,9.423,3.971,15.453-6.2,15.453-6.2,12.25,7.167,15.83,10.17-2.921,65.668-2.921,65.668l-1.6,18.79s1.319.969,1.319,4.165.094,5.424.094,5.424H367.451s-1.508-7.555-.377-10.557a35.518,35.518,0,0,1,3.11-6.005l.942-28.96.377-25.861Z" transform="translate(-356.05 -272.6)"/><path class="ao" d="M436.536,283s5.088,1.453,6.6,9.2,1.225,37.386,1.225,37.386l-28.457-6.3s3.863-12.494,3.863-13.269,7.821-20.921,8.1-21.308C428.244,288.23,436.536,283,436.536,283Z" transform="translate(-358.892 -272.927)"/><g transform="translate(14.724 20.533)"><ellipse class="n" cx="0.278" cy="11.623" rx="0.278" ry="11.623" transform="translate(0 0.009) rotate(-0.848)"/></g></g><g transform="translate(129.657 97.728)"><path class="n" d="M423.4,296.7a8.612,8.612,0,0,1-.094,1.065c-.094.678-.283,1.647-.471,2.809-.471,2.325-1.131,5.521-2.073,9.008s-1.79,6.683-2.544,8.911a23.212,23.212,0,0,1-.942,2.615,8.284,8.284,0,0,1-.377.969s.094-.388.188-.969c.189-.775.471-1.647.754-2.712.66-2.325,1.508-5.424,2.45-8.911.848-3.487,1.6-6.683,2.167-9.008.283-1.065.471-1.937.66-2.712C423.308,297.087,423.4,296.7,423.4,296.7Z" transform="translate(-416.9 -296.7)"/></g><g transform="translate(132.611 97.042)"><path class="n" d="M6-.009a32.115,32.115,0,0,1,6,.274A32.148,32.148,0,0,1,6,.557,32.115,32.115,0,0,1,0,.283,32.148,32.148,0,0,1,6-.009Z" transform="translate(0 11.993) rotate(-86.98)"/></g><path class="x" d="M413.409,325l-4.994,20.437-30.153,3.681-2.638-.1s-3.863-.969-5.371-1.162c-2.45-.291-6.784,2.615-6.784,2.615l-5.748,3.1a10.88,10.88,0,0,1-3.581.678,18.332,18.332,0,0,1-2.733-.291,32.488,32.488,0,0,0-3.769-.581c-2.45-.194-3.015.969-2.45,1.937.283.969,7.538,3.584,7.538,3.584l9.988,1.065s3.769-2.131,5.371-2.324a18.245,18.245,0,0,1,4.523.387s.66.1,1.7.194h0s35.524,4.649,42.685,1.937,14.134-31.188,14.134-31.188Z" transform="translate(-283.092 -199.862)"/><g transform="translate(118.716 99.468)"><path class="ap" d="M415.759,303.924a5.617,5.617,0,0,1-5.371,5.715,5.272,5.272,0,0,1-5.088-5.715,5.549,5.549,0,0,1,5.371-5.424A5.131,5.131,0,0,1,415.759,303.924Z" transform="translate(-405.289 -298.497)"/><g transform="translate(1.175 1.238)"><path class="a" d="M409.706,307.741a3.729,3.729,0,0,0,4.334-2.809c0-.1,0-.291.283-.194.188,0,.188.1.188.194a4.007,4.007,0,0,1-4.523,3.293,4.26,4.26,0,0,1,.471-8.426c.094,0,.188-.1.188.1a.206.206,0,0,1-.188.194,3.324,3.324,0,0,0-2.261.872,3.886,3.886,0,0,0-1.413,3.39,3.7,3.7,0,0,0,2.167,3.2A2.168,2.168,0,0,0,409.706,307.741Z" transform="translate(-406.536 -299.775)"/><path class="a" d="M410.148,306.9a2.957,2.957,0,0,1-2.45-3.293,3.044,3.044,0,0,1,2.638-2.712c.094,0,.188-.1.188.1,0,.1-.094.1-.188.1a2.856,2.856,0,0,0-2.544,2.615,2.765,2.765,0,0,0,2.356,3,2.572,2.572,0,0,0,2.827-1.84c0-.1.094-.1.094-.194s.094-.1.188-.1.094.1,0,.194a1.967,1.967,0,0,1-.377.775A2.789,2.789,0,0,1,410.148,306.9Z" transform="translate(-406.602 -299.81)"/><path class="a" d="M411.187,304.625c0,.194.094.387-.189.484-.377.194-.565.194-.66,0s-.188-.1-.283-.1c-.188.1-.377.194-.565,0a.465.465,0,0,1-.094-.581.943.943,0,0,1,.66-.678.206.206,0,0,0,.188-.194,3.485,3.485,0,0,1,.377-.872c.094-.1.188-.194.188-.291a.555.555,0,0,1,.377-.1.362.362,0,0,1,.094.291,1.4,1.4,0,0,1-.188.581,2.035,2.035,0,0,1-.377.581.508.508,0,0,0-.188.387c-.094.194-.189.291-.094.484s.283,0,.377-.1C411.092,304.625,411.092,304.625,411.187,304.625Zm-.942-.678a.786.786,0,0,0-.471.484c0,.1-.094.194,0,.291s.189,0,.283-.1A.941.941,0,0,0,410.244,303.947Zm.471-.194a3.065,3.065,0,0,0,.471-.969c0-.1.094-.194,0-.194s-.094.1-.189.1A2.581,2.581,0,0,0,410.715,303.753Z" transform="translate(-406.697 -299.854)"/><path class="a" d="M414.609,303.967c-.188,0-.188-.1-.188-.291a4,4,0,0,0-.66-2.034,3.464,3.464,0,0,0-2.073-1.453c-.094,0-.188,0-.188-.1V299.9c0-.1.094,0,.188,0a4.12,4.12,0,0,1,3.109,3.874C414.8,303.967,414.8,303.967,414.609,303.967Z" transform="translate(-406.822 -299.778)"/><path class="a" d="M411.494,301a3.381,3.381,0,0,1,1.979,2.131,4.3,4.3,0,0,0,.094.484c0,.1,0,.194-.094.194s-.094-.1-.094-.194a2.909,2.909,0,0,0-1.885-2.518c-.094,0-.094,0-.094-.1S411.494,301,411.494,301Z" transform="translate(-406.817 -299.812)"/></g></g><path class="x" d="M296.473,284.6l-3.015,1.065A1.7,1.7,0,0,1,291.2,284.6v-.194a1.872,1.872,0,0,1,1.413-2.131l3.109-.678a1.5,1.5,0,0,1,1.79,1.065v.1A1.706,1.706,0,0,1,296.473,284.6Z" transform="translate(-279.983 -198.496)"/><path class="aq" d="M365.478,354.827l-3.392,1.259a4.74,4.74,0,0,1-1.037.194H360.3l-4.806-.194a1.85,1.85,0,0,1-1.79-1.646,1.337,1.337,0,0,1,1.413-1.55s4.9-.194,5.842-.291c0,0,4.335-2.228,6.6-3.1" transform="translate(-283.594 -200.632)"/><path class="x" d="M381.2,260.6" transform="translate(-285.182 -197.837)"/><g transform="translate(20.824 89.301)"><path class="y" d="M312.888,326.39c0-9.686-8.48-35.062-9.988-37.29" transform="translate(-301.487 -288.035)"/><path class="y" d="M314.592,326.355h-3.486c0-9.2-8.2-34.093-9.706-36.224L304.227,288C305.923,290.518,314.592,316.282,314.592,326.355Z" transform="translate(-301.4 -288)"/></g><g transform="translate(9.423 91.432)"><path class="y" d="M291.1,325.859c0-8.911,6.5-35.159,6.5-35.159" transform="translate(-289.404 -290.216)"/><path class="y" d="M292.786,325.843H289.3c0-9.1,6.219-34.481,6.5-35.643l3.392.872C299.1,291.362,292.786,317.223,292.786,325.843Z" transform="translate(-289.3 -290.2)"/></g><path class="x" d="M302.5,288.2l-7.35,1.162a2.1,2.1,0,0,1-2.45-1.453h0a1.661,1.661,0,0,1,1.6-2.034l7.444-.872a1.9,1.9,0,0,1,2.073,1.356h0A1.591,1.591,0,0,1,302.5,288.2Z" transform="translate(-280.07 -198.604)"/><path class="x" d="M303.208,291.7l-7.161,1.162a2.256,2.256,0,0,1-2.45-1.356h0a1.585,1.585,0,0,1,1.6-1.937l7.256-.872a1.965,1.965,0,0,1,2.073,1.356h0A1.554,1.554,0,0,1,303.208,291.7Z" transform="translate(-280.122 -198.72)"/><path class="x" d="M299.608,295.412l-4.429,1.162a1.693,1.693,0,0,1-1.885-1.356h0a1.4,1.4,0,0,1,1.037-1.937l4.617-.581c.471-.1,1.036.484,1.225,1.162h0C300.362,294.637,300.174,295.315,299.608,295.412Z" transform="translate(-280.103 -198.846)"/><g transform="translate(51.26 121.554)"><line class="z" x2="3.015" y2="69.155" transform="translate(0.094)"/><path class="z" d="M333.7,397.636l3.11-5.037,4.523,4.552" transform="translate(-333.7 -323.542)"/></g><g transform="translate(1.036 146.955)"><g transform="translate(7.32)"><path class="a" d="M301.013,373.071a11.966,11.966,0,0,0,11.873-10.17c.094-.387.094-.775.66-.775.471,0,.565.194.471.581a13.12,13.12,0,0,1-12.155,11.429c-7.161.484-13.192-5.424-13.663-12.4A13.267,13.267,0,0,1,299.506,347.6c.283,0,.66-.291.754.29.094.484-.094.775-.66.775a10.792,10.792,0,0,0-7.256,3.971,11.9,11.9,0,0,0-2.45,12.01,11.636,11.636,0,0,0,8.857,8.136A9.053,9.053,0,0,0,301.013,373.071Z" transform="translate(-288.168 -347.525)"/><path class="a" d="M301.9,370.484a9.548,9.548,0,0,1-2.167-18.887c.283,0,.66-.291.66.1.094.484-.377.387-.66.484a8.937,8.937,0,0,0-6.973,9.686,8.835,8.835,0,0,0,9.046,7.942,8.674,8.674,0,0,0,7.915-6.683,1.258,1.258,0,0,0,.094-.581c0-.291.188-.387.377-.291.283,0,.188.291.188.484a10.31,10.31,0,0,1-.754,2.421A9.058,9.058,0,0,1,301.9,370.484Z" transform="translate(-288.399 -347.65)"/><path class="a" d="M304.26,363.359c.188.581.377,1.065-.283,1.453-1.131.678-1.6.775-2.073.194-.377-.387-.565-.291-.848-.1-.565.387-1.131.678-1.7.194a1.547,1.547,0,0,1-.565-1.84,2.817,2.817,0,0,1,1.885-2.324.673.673,0,0,0,.565-.775,7.318,7.318,0,0,1,.754-2.809,3.482,3.482,0,0,1,.66-.969,1.015,1.015,0,0,1,1.225-.387c.471.194.471.581.565,1.065a5.072,5.072,0,0,1-.283,2.034c-.188.678-.565,1.453-.754,2.131-.188.388-.377.775-.565,1.259s-.565,1.162-.094,1.55.848-.194,1.225-.387C303.977,363.455,304.072,363.455,304.26,363.359Zm-3.2-1.646a2.736,2.736,0,0,0-1.225,1.743c-.094.29-.094.678.283.775.377.194.565-.1.754-.387C301.339,363.165,301.056,362.487,301.056,361.712Zm1.319-.581a10.3,10.3,0,0,0,1.037-3.293c0-.194.188-.581-.094-.678s-.377.291-.471.484A11.118,11.118,0,0,0,302.375,361.131Z" transform="translate(-288.777 -347.789)"/><path class="a" d="M314.418,359.9c-.565.1-.565-.387-.565-.678a11.758,11.758,0,0,0-2.544-6.005,11.494,11.494,0,0,0-7.161-4.359c-.283-.1-.565,0-.754-.291-.188-.194-.094-.581,0-.872s.377-.1.565-.1a13.1,13.1,0,0,1,11.025,11.623C314.983,359.7,314.983,360,314.418,359.9Z" transform="translate(-289.041 -347.525)"/><path class="a" d="M303.76,351.6a9.381,9.381,0,0,1,7.35,7.749c0,.194.188.484-.188.581-.283,0-.377-.194-.377-.484a8.333,8.333,0,0,0-2.544-4.94,7.948,7.948,0,0,0-4.429-2.325c-.283,0-.471-.1-.471-.387C303.288,351.5,303.571,351.6,303.76,351.6Z" transform="translate(-289.03 -347.653)"/></g><g transform="translate(0 27.611)"><path class="aa" d="M300.2,384.816a3.386,3.386,0,0,1,2.45-3.1c.283-.1.283-.291.283-.484a10.115,10.115,0,0,1,.942-3.777,3.349,3.349,0,0,1,1.036-1.259.862.862,0,0,1,1.319.581,4.736,4.736,0,0,1-.188,2.809,23.5,23.5,0,0,1-1.413,3.584,4.113,4.113,0,0,0-.283,1.55c0,.484.283.581.66.388a1.915,1.915,0,0,0,1.225-1.453c.094-.484.283-1.065.377-1.55a.911.911,0,0,1,.754-.775c.565-.1.754.1.66.678a11.692,11.692,0,0,0-.565,2.615c0,.29-.188.678.094.872s.565-.1.848-.291a1.042,1.042,0,0,0,.565-1.356,6.027,6.027,0,0,1,0-1.84c.094-.484.471-.678,1.037-.581.471.1.377.484.377.775-.094.969-.094,1.937-.094,2.906.471-1.065.848-2.034,1.225-3.1a.712.712,0,0,1,.66-.581c.565,0,.848.291.66.872-.094.387-.377.775-.471,1.162s-.188.775.094,1.065c.377.291.754.1,1.131,0,.283-.1.283-.291.283-.581a6.672,6.672,0,0,1,0-1.937.837.837,0,0,1,1.037-.581c.471.1.377.387.377.678-.094.969-.094,1.937-.094,3,.188-.581.471-1.065.66-1.647a10.912,10.912,0,0,1,.66-1.55.756.756,0,0,1,1.036-.484c.471.194.283.581.188.969a6.608,6.608,0,0,0-.565,1.453c0,.581.283.775.848.775a.451.451,0,0,0,.471-.484,6.561,6.561,0,0,1,.565-1.937,1.152,1.152,0,0,1,.471-.484.785.785,0,0,1,.66,0,.465.465,0,0,1,.094.581,7.453,7.453,0,0,0-.471,2.518c0,.291,0,.678.377.775s.565-.291.66-.484a23.109,23.109,0,0,0,.66-2.421,1.228,1.228,0,0,1,.66-.872c.188-.1.471-.194.66,0s.094.387.094.581c-.188,1.162-.471,2.421-.565,3.584v.1h.094a5.9,5.9,0,0,0,1.7-1.743c.471.872.377,1.162-.283,1.84a16.867,16.867,0,0,0-2.261,3.487,4.891,4.891,0,0,1-.754,1.356,2.4,2.4,0,0,1-.942.775,1.627,1.627,0,0,1-1.79-.194c-.377-.387-.283-1.065.094-1.743a12.7,12.7,0,0,1,2.356-2.712l.283-.291a.362.362,0,0,0,.094-.291c-.094-.1-.189,0-.283,0-1.131.387-1.131.387-1.979-.484-.094-.194-.283-.1-.377-.1-1.037.194-1.319.1-1.79-.775-.283.387-.565.872-.848,1.259a.726.726,0,0,1-.942.387c-.377-.1-.471-.387-.565-.775s-.283-.291-.565-.194c-1.037.291-1.508.194-1.979-.775-.283.387-.471.775-.754,1.162-.189.291-.471.678-.942.581s-.565-.484-.66-.872a12.1,12.1,0,0,1-1.6.775c-.565.1-1.036.1-1.319-.484-.094-.194-.189-.194-.283-.1a1.966,1.966,0,0,0-.565.387,1.237,1.237,0,0,1-1.79-.387c-.188-.194-.283-.291-.471-.1l-.283.291c-1.037.678-1.6.678-2.45-.291A8.51,8.51,0,0,0,300.2,384.816Zm4.146-2.615a12.112,12.112,0,0,0,1.225-3.971c0-.29.188-.775-.188-.775-.377-.1-.471.387-.471.678A9.915,9.915,0,0,0,304.346,382.2Zm-1.319,1.647a3.385,3.385,0,0,0-.094-.969c0-.194-.094-.291-.283-.194a3.025,3.025,0,0,0-1.131,2.228.492.492,0,0,0,.377.484.436.436,0,0,0,.565-.1A1.587,1.587,0,0,0,303.027,383.847Zm17.715,4.165a5.656,5.656,0,0,0-1.79,2.228c-.094.29,0,.484.377.387a.947.947,0,0,0,.471-.387A4.793,4.793,0,0,0,320.742,388.012Z" transform="translate(-281.543 -376.033)"/><path class="aa" d="M299.057,384.815c.094.387.094.775.188,1.162a3.151,3.151,0,0,1-1.131.581,1.1,1.1,0,0,1-1.413-.581,2.494,2.494,0,0,1-.094-1.84c.094-.387.283-.678.377-1.065a9.874,9.874,0,0,0-1.979,2.906c-.094.1-.094.291-.188.387-.094.194-.283.387-.471.291a.411.411,0,0,1-.377-.387c-.094-.387-.189-.387-.471-.194a5.565,5.565,0,0,1-2.827.678,1.224,1.224,0,0,1-1.131-.581c-.188-.291-.283-.194-.471-.1a4.372,4.372,0,0,1-1.413.581.9.9,0,0,1-1.131-.484c-.094-.194-.188-.194-.377-.1-.094,0-.094.1-.188.1-1.131.678-1.508.581-2.356-.484a2.863,2.863,0,0,1-.66.484,1.708,1.708,0,0,1-1.79.194,1.8,1.8,0,0,1-.754-1.743,3.179,3.179,0,0,1,2.356-2.906c.283-.1.377-.194.377-.581a10.1,10.1,0,0,1,.942-3.68,2.249,2.249,0,0,1,.942-1.162c.754-.484,1.319-.291,1.6.581a6.165,6.165,0,0,1-.188,2.615,24.628,24.628,0,0,1-1.413,3.68,2.832,2.832,0,0,0-.188,1.55c.094.387.283.581.66.387a1.865,1.865,0,0,0,1.319-1.453c.094-.581.283-1.065.377-1.647a.868.868,0,0,1,1.037-.678c.283,0,.377.291.283.581-.188.678-.377,1.453-.565,2.131a2.752,2.752,0,0,0-.094.872c0,.194-.094.484.188.581a.687.687,0,0,0,.754-.387,1.333,1.333,0,0,1,.66-.775,13.255,13.255,0,0,0,2.073-2.518,1.068,1.068,0,0,1,1.131-.484c.377.1.565.484.283.678-.848.775-.471,1.55-.283,2.421a1.939,1.939,0,0,0,.094.678c.377-.194.66-.291,1.036-.484a.731.731,0,0,0,.283-.678,21.5,21.5,0,0,1,.66-4.94,5.061,5.061,0,0,1,.848-1.937c.188-.194.377-.484.565-.581a1.443,1.443,0,0,1,1.508-.194,1.218,1.218,0,0,1,.377,1.356,15.779,15.779,0,0,1-1.6,4.455l-.283.581c-.094.1-.188.194-.094.291s.094-.1.188-.1a5.921,5.921,0,0,1,1.319-1.356.7.7,0,0,1,.848-.1.618.618,0,0,1,.189.775l-.283,1.162c-.094.194-.094.387-.189.581-.094.387-.377.969,0,1.259C298.4,385.493,298.68,384.912,299.057,384.815Zm-3.863-2.421a30.252,30.252,0,0,0,1.6-4.068,1.468,1.468,0,0,0,0-1.259A10.033,10.033,0,0,0,295.194,382.393Zm-10.648-.194a12.113,12.113,0,0,0,1.225-3.971c0-.291.188-.775-.188-.775-.283-.1-.377.387-.471.678A11.8,11.8,0,0,0,284.546,382.2Zm-1.319,1.356v-.775c0-.387-.094-.387-.377-.194a2.772,2.772,0,0,0-1.131,2.034c0,.291,0,.581.283.678a.623.623,0,0,0,.754-.291A1.354,1.354,0,0,0,283.227,383.556Zm8.009.194c-.377.484-.754.872-1.037,1.259-.094.1-.188.1-.094.291a.984.984,0,0,0,.848.484.635.635,0,0,0,.565-.678A3.5,3.5,0,0,0,291.236,383.749Z" transform="translate(-280.4 -376.032)"/><path class="aa" d="M288.742,380.743c-.565,0-.942-.291-.942-.775a.979.979,0,0,1,1.036-.969c.565,0,.942.291.942.775A.93.93,0,0,1,288.742,380.743Z" transform="translate(-280.827 -376.125)"/><path class="aa" d="M308.542,380.743c-.565,0-.942-.291-.942-.775a.979.979,0,0,1,1.037-.969c.565,0,.942.291.942.775A.93.93,0,0,1,308.542,380.743Z" transform="translate(-281.97 -376.125)"/></g></g></g></g></g></g></svg>