<svg xmlns="http://www.w3.org/2000/svg" width="182.214" height="200.745" viewBox="0 0 182.214 200.745"><defs><style>.a{fill:#e7e9eb;}.b,.f{fill:#17182a;}.b,.d,.g,.h,.k,.m{fill-rule:evenodd;}.c,.j,.k,.m,.n,.o{fill:none;}.c,.j{stroke:#333;}.c,.d,.e,.h,.i,.j,.k,.m,.n,.o{stroke-miterlimit:10;}.c{stroke-width:0.507px;}.d,.e,.i{fill:#f17440;}.d,.e,.h,.i,.k,.m,.n,.o{stroke:#17182a;}.d,.h,.i,.j,.m{stroke-width:0.377px;}.e{stroke-width:0.576px;}.g{fill:#fff;}.h,.l{fill:#fefefe;}.k{stroke-linecap:round;stroke-width:0.447px;}.n{stroke-width:0.754px;}.o{stroke-width:0.299px;}</style></defs><g transform="translate(0.19 0.188)"><ellipse class="a" cx="74.025" cy="74.025" rx="74.025" ry="74.025" transform="translate(33.973 52.307)"/><path class="b" d="M121.135,98.115s5.148-28.945-4.954-41.863c-1.943-18.163-19.329-26.614-35.453-19.329C51.881,44.111,56.64,95.59,62.177,101.515c5.342,31.082,8.742,21.077,8.742,22.534s58.57,2.234,58.57,2.234Z" transform="translate(-7.541 5.95)"/><path class="c" d="M82.358,84.345s-2.137.194-1.166-1.845" transform="translate(-8.199 4.567)"/><path class="c" d="M120.268,62.143s1.166-1.748-1.068-1.943" transform="translate(-9.297 5.207)"/><path class="d" d="M97.493,97.5c-1.943-.291-1.943-2.914-4.08-5.342-1.651-2.817-1.748-3.205-2.914-4.954-.486-1.651,13.4-.971,14.667-1.748,2.817-1.554,12.433-14.472,12.724-11.073a9.964,9.964,0,0,1-1.068,5.634l2.331,5.148,2.04,3.982s3.4,9.13,2.914,11.073c-.68,2.817-8.548,9.13-8.548,9.13s-5.439,1.36-7.382.291c-3.108-1.748-8.742-2.137-11.85-3.691C95.065,105.368,98.853,97.695,97.493,97.5Z" transform="translate(-8.473 4.816)"/><path class="e" d="M121.341,57.8a3.059,3.059,0,0,0-4.274.1l-.583-1.166a23.158,23.158,0,0,0-6.119-7.285c-7.285-5.828-17.192-6.8-24.866-2.234-7.868,4.759-11.656,14.278-9.616,23.7a34.956,34.956,0,0,0,3.788,8.839,3.043,3.043,0,0,0-1.943,3.691,4.662,4.662,0,0,0,2.234,3.011c3.594,1.651,5.536-.777,5.536-.777,6.993,5.148,16.318,6.216,24.088,1.651,7.673-4.565,11.073-13.113,10-21.563a4.824,4.824,0,0,0,3.5-4.565A5.262,5.262,0,0,0,121.341,57.8Z" transform="translate(-8.038 5.662)"/><path class="f" d="M57.012,92s3.788,16.609-.486,32.247C50.893,144.742,37,165.819,37.1,168.345c1.457,22.34,47.983,23.8,52.742,8.45s-.389-59.056-.389-59.056Z" transform="translate(-6.941 4.295)"/><path class="d" d="M46.368,107.722c-2.234-2.04-5.925-6.411-9.325-9.713-1.651-1.554-4.079-3.788-4.079-3.788a3.6,3.6,0,0,1-2.72.583,14.585,14.585,0,0,1-3.885-1.651c-1.166-.971-.291-1.651-1.166-3.108-.68-1.068-2.72-2.137-3.788-3.5-.68-.777-.583-4.371-.874-5.051-.777-1.748-1.457-2.137-1.845-3.885-.389-1.651,3.3-6.7,3.205-8.353-.1-2.234-.971-3.982-1.943-6.314-1.166-2.914-1.748-2.331-1.748-5.439,0-.777.291-2.525,1.263-3.108,1.068-.583,2.234,2.137,3.011,3.3.777,1.068,1.36,3.691,2.428,5.634.777,1.554,4.274,6.508,4.274,6.508a12.537,12.537,0,0,1,3.691.486,8.872,8.872,0,0,1,3.108,2.623,2.928,2.928,0,0,1,.389,3.4S38.5,77.9,38.792,78.972s-.389,1.651.194,2.72a15.574,15.574,0,0,0,2.72,3.108c2.331,2.331,9.907,6.6,9.907,6.6a7.84,7.84,0,0,1,1.845,3.205c.971,2.525.874,6.993-.583,10.684a22.858,22.858,0,0,1-1.554,2.04,7.487,7.487,0,0,1-1.845,1.36,7.181,7.181,0,0,1-1.748.291A13.86,13.86,0,0,1,46.368,107.722Z" transform="translate(-6.399 5.376)"/><path class="d" d="M139.924,64.336a4.882,4.882,0,0,1,.486-2.234,26.681,26.681,0,0,0,1.457-6.7,14.941,14.941,0,0,0-.971-7.479c-.583-1.748-2.234-3.108-3.3-5.051a21.29,21.29,0,0,1-2.428-6.508c-.583-2.72-.874-6.411-1.166-7.673-1.166-4.857-2.137-5.051-3.108-9.907-.194-1.263-.583-2.331,0-3.3.1-.194.971-.777,1.263-.68a7.85,7.85,0,0,1,3.691,3.4c1.36,2.428,1.845,7.868,4.177,9.325,1.457.971,2.914.194,4.371-.291a9.776,9.776,0,0,1,6.022-.389c.874.291,2.525,2.72,3.594,3.205,1.457.68,2.914.874,3.594,1.748,1.166,1.554.291,3.205,1.166,4.954.777,1.457,2.04,1.554,2.04,2.914,0,1.651-.389,3.594-.389,4.371,0,.874.777,1.554.874,2.72a8.226,8.226,0,0,1-.777,2.331c-.389.777-4.468,3.788-4.468,3.788v6.508s2.623,5.925.874,10.1a6.375,6.375,0,0,1-3.885,3.5,10,10,0,0,1-6.313.1,9.625,9.625,0,0,1-3.885-2.04,8.961,8.961,0,0,1-2.331-3.5A9.2,9.2,0,0,1,139.924,64.336Z" transform="translate(-9.623 6.51)"/><path class="g" d="M108.685,77.9a39.438,39.438,0,0,1-7.285,5.051s3.108,3.108,6.508.971a3.37,3.37,0,0,0,1.457-1.943C109.656,81.3,109.753,78.774,108.685,77.9Z" transform="translate(-8.786 4.699)"/><path class="h" d="M42.865,110.88a15.61,15.61,0,0,0,3.4,4.954c.1.1.194.194.291.194,26.517,11.364,46.623,52.451,43.126,73.334a1.156,1.156,0,0,0,.389,1.068c2.331,1.845,13.7,8.742,48.177,1.36h.1c10.587-2.914,19.62-11.17,19.523-11.364-.389-1.36-6.7-25.254-6.411-61.387v-.194c.777-3.594,6.8-45.263,6.6-47.5-.1-1.845-.1-4.079-.194-4.857a14.406,14.406,0,0,0-1.554-5.439,9.853,9.853,0,0,0-.874-1.263,1.1,1.1,0,0,0-1.943.777c.1,1.068.194,2.234.291,3.4.291,2.817.971,5.245.68,6.216-.389,1.651-2.234,3.3-3.982,3.982a10.612,10.612,0,0,1-8.839-.777c-2.137-1.36-3.5-4.371-4.177-6.022-.389-.971-.1-2.623.389-4.177.486-1.457,1.068-2.72.971-3.691-.1-.874-4.468,6.411-4.759,7.382-1.651,4.079-12.918,13.21-14.667,14.278a10.2,10.2,0,0,0-2.137,1.651,1.277,1.277,0,0,0-.291,1.166c.291.68,1.748,2.623,2.817,5.051.583,1.651,4.468,13.7-5.731,19.038-.1,0-.1.1-.194.1-4.177,1.36-13.5-7.091-17.1-10.587a75.761,75.761,0,0,1-4.954-6.411,1.1,1.1,0,0,0-1.263-.389c-3.691,1.651-19.718,7.77-33.607-.291l-.1-.1a10.333,10.333,0,0,0-4.177-.971h0a1.043,1.043,0,0,0-.486,1.943l.194.1.291.291a13.89,13.89,0,0,1,2.04,4.954,14.926,14.926,0,0,1-.583,7.479c-1.554,3.5-3.691,4.565-4.857,4.857a1.1,1.1,0,0,1-1.068-.291l-4.662-4.565a1.085,1.085,0,0,0-1.845.874,3.642,3.642,0,0,0,.1,1.068A15.056,15.056,0,0,0,42.865,110.88Z" transform="translate(-7.073 5.23)"/><g transform="translate(81.477 77.063)"><path class="f" d="M90.387,75.017a.357.357,0,0,1-.291-.1.6.6,0,0,1-.1-.68,5.7,5.7,0,0,1,3.788-2.04.44.44,0,1,1,.1.874,5.082,5.082,0,0,0-3.205,1.748C90.678,74.92,90.581,75.017,90.387,75.017Z" transform="translate(-89.934 -72.2)"/></g><g transform="translate(94.13 68.781)"><path class="f" d="M103.387,67.1h-.194a.467.467,0,0,1-.194-.583,5.709,5.709,0,0,1,3.3-2.817c.194-.1.486.1.583.291s-.1.486-.291.583a5.271,5.271,0,0,0-2.817,2.331C103.776,67,103.582,67.1,103.387,67.1Z" transform="translate(-102.961 -63.673)"/></g><path class="f" d="M91.7,89.448s6.7,4.371,16.512.1c7.77-4.857,9.033-8.645,9.033-8.645l1.068,2.817s-.389,4.371-8.256,7.965C103.744,94.693,97.139,93.236,91.7,89.448Z" transform="translate(-8.508 4.613)"/><g transform="translate(0 132.715)"><path class="i" d="M30.223,130.86a5.913,5.913,0,0,1,8.159.583c3.788,4.468-.486,15.735-.486,15.735s-11.85,2.428-15.638-1.845a5.814,5.814,0,0,1,.583-8.159h0a5.638,5.638,0,0,1,5.342-1.166A5.8,5.8,0,0,1,30.223,130.86Z" transform="translate(-20.862 -129.496)"/></g><g transform="translate(159.431 95.032)"><path class="i" d="M169.588,97.014l-2.623-.486-1.943,1.748-.194-2.623L162.4,94.391l2.525-1.068.486-2.623,1.748,1.943,2.623-.291-1.36,2.331Z" transform="translate(-160.749 -90.7)"/><path class="i" d="M169.188,106.214l-2.623-.583-1.943,1.845-.291-2.623L162,103.591l2.428-1.068.486-2.623,1.748,1.943,2.72-.291-1.36,2.234Z" transform="translate(-160.737 -90.964)"/><path class="i" d="M169.191,115.411l-2.623-.583-1.845,1.845-.291-2.72-2.331-1.263,2.428-1.068.486-2.623,1.748,2.04,2.623-.389-1.36,2.331Z" transform="translate(-160.74 -91.225)"/><path class="i" d="M168.288,124.614l-2.623-.583-1.943,1.845-.291-2.623-2.331-1.263,2.428-1.068.486-2.623,1.845,1.943,2.623-.291-1.36,2.234Z" transform="translate(-160.711 -91.492)"/><path class="i" d="M167.791,133.814l-2.525-.583-1.943,1.846-.291-2.623-2.331-1.263,2.428-1.068.486-2.623,1.748,1.943,2.623-.389-1.263,2.331Z" transform="translate(-160.7 -91.756)"/></g><g transform="translate(87.757)"><path class="i" d="M108.93,28.36a12.347,12.347,0,0,1-8.839-3.691A12.413,12.413,0,0,1,96.4,15.83a12.185,12.185,0,0,1,3.691-8.839A12.53,12.53,0,0,1,121.46,15.83a12.185,12.185,0,0,1-3.691,8.839,12.347,12.347,0,0,1-8.839,3.691Zm0-23.311a10.879,10.879,0,1,0,10.879,10.879A10.861,10.861,0,0,0,108.93,5.048Z" transform="translate(-96.4 -3.3)"/><path class="i" d="M109.2,15.293a1.943,1.943,0,1,1,1.943-1.943.777.777,0,0,0,1.554,0,3.531,3.531,0,0,0-2.72-3.4V9.077a.777.777,0,1,0-1.554,0v.874a3.531,3.531,0,0,0-2.72,3.4,3.482,3.482,0,0,0,3.5,3.5,1.943,1.943,0,1,1-1.943,1.943.777.777,0,0,0-1.554,0,3.531,3.531,0,0,0,2.72,3.4v.874a.777.777,0,0,0,1.554,0V22.19a3.531,3.531,0,0,0,2.72-3.4A3.482,3.482,0,0,0,109.2,15.293Z" transform="translate(-96.667 -3.443)"/></g><path class="j" d="M69.3,68.5" transform="translate(-7.865 4.969)"/><path class="b" d="M72.422,83.333C84.175,81.2,94.956,61.964,88.934,48.754s-16.512,4.274-16.512,4.274L63,68.957Z" transform="translate(-7.684 5.677)"/><path class="b" d="M87.656,49.074c-.583.874,16.027,11.85,27.585,7.868,4.662-1.554-3.205-12.53-4.177-13.5a7.138,7.138,0,0,0-8.645-.971s-11.17-2.331-15.735.1C84.84,43.44,88.725,47.52,87.656,49.074Z" transform="translate(-8.349 5.746)"/><path class="k" d="M97.4,67.4s1.748,2.04,4.759,5.342a1.377,1.377,0,0,1-.1,1.943,1.677,1.677,0,0,1-.389.291" transform="translate(-8.671 5.001)"/><g transform="translate(72.314 57.928)"><path class="l" d="M88.853,52.5a24.982,24.982,0,0,1,0,6.022,30.463,30.463,0,0,1-1.166,5.925,21.935,21.935,0,0,1-2.72,5.439A14.974,14.974,0,0,1,80.5,73.966,18.894,18.894,0,0,0,84.482,69.6a26.881,26.881,0,0,0,2.525-5.342,37.851,37.851,0,0,0,1.36-5.731,28.256,28.256,0,0,0,.389-3.011C88.853,54.54,88.853,53.471,88.853,52.5Z" transform="translate(-80.5 -52.5)"/></g><g transform="translate(51.528 44.913)"><path class="l" d="M80.372,39.1a19.943,19.943,0,0,0-6.7,3.788,37.371,37.371,0,0,0-2.914,2.623,16.886,16.886,0,0,0-1.263,1.457c-.389.486-.874.971-1.263,1.457-.68,1.068-1.457,2.137-2.137,3.205l-1.748,3.4-1.36,3.594a13.5,13.5,0,0,0-.583,1.845l-.486,1.943-.583,1.845c-.194.583-.194,1.263-.389,1.943l-.68,3.788c-.194,1.263-.194,2.623-.389,3.885l-.194,1.943a13.018,13.018,0,0,0-.1,1.943v7.77l.486,7.77-.777-7.77a13.019,13.019,0,0,1-.1-1.943V81.643l-.1-3.885c0-1.263.1-2.623.194-3.885s.194-2.623.291-3.885l.68-3.885c.1-.68.194-1.263.291-1.943l.486-1.943.486-1.845a13.5,13.5,0,0,1,.583-1.845l1.457-3.691c.583-1.166,1.263-2.331,1.845-3.5.68-1.166,1.457-2.137,2.234-3.3.389-.486.874-.971,1.263-1.457.486-.486.874-.971,1.36-1.457A18.861,18.861,0,0,1,73.281,42.6,21.016,21.016,0,0,1,80.372,39.1Z" transform="translate(-59.1 -39.1)"/></g><g transform="translate(111.943 70.555)"><path class="l" d="M121.3,65.5a20.969,20.969,0,0,1,1.554,6.993,22.223,22.223,0,0,1-.1,3.594,15.367,15.367,0,0,1-.874,3.5l.291-3.5v-3.5A42.878,42.878,0,0,0,121.3,65.5Z" transform="translate(-121.3 -65.5)"/></g><g transform="translate(65.515 79.88)"><path class="l" d="M73.5,78.111l3.205-1.457c1.068-.486,2.137-1.068,3.205-1.554a16.911,16.911,0,0,1-1.36,1.166A6.281,6.281,0,0,1,77,77.14a11.847,11.847,0,0,1-1.651.68A10.484,10.484,0,0,1,73.5,78.111Z" transform="translate(-73.5 -75.1)"/></g><g transform="translate(85.523 57.345)"><path class="l" d="M113.429,55.008a21.563,21.563,0,0,1-4.954.583,29.383,29.383,0,0,1-5.051-.291A17.9,17.9,0,0,1,101,54.814a11.743,11.743,0,0,1-2.428-.777A18.908,18.908,0,0,1,94.1,51.9c1.554.583,3.108,1.166,4.662,1.651a39.176,39.176,0,0,0,4.857,1.068,42.753,42.753,0,0,0,4.954.486A40.931,40.931,0,0,0,113.429,55.008Z" transform="translate(-94.1 -51.9)"/></g><g transform="translate(73.771 41.379)"><path class="l" d="M82,38.219A23.879,23.879,0,0,1,92.684,35.5a27.762,27.762,0,0,1,5.634.291,17.45,17.45,0,0,1,5.342,1.845,24.433,24.433,0,0,1,8.353,7.382A18.259,18.259,0,0,1,115.7,55.411a19.3,19.3,0,0,0-4.079-10.1,25.116,25.116,0,0,0-8.256-7.091,16.154,16.154,0,0,0-5.148-1.748,25.565,25.565,0,0,0-5.439-.291,33.313,33.313,0,0,0-5.439.486A18.934,18.934,0,0,0,82,38.219Z" transform="translate(-82 -35.463)"/></g><g transform="translate(30.742 125.823)"><path class="l" d="M58.195,122.4c-.874,4.079-2.04,7.965-3.3,11.947-1.36,3.885-2.914,7.77-4.565,11.559A106.711,106.711,0,0,1,44.6,156.881a93.753,93.753,0,0,1-6.9,10.2c1.068-1.748,2.331-3.4,3.3-5.245l1.651-2.623,1.457-2.72c.971-1.748,1.943-3.594,2.914-5.439.874-1.845,1.845-3.691,2.623-5.536,1.748-3.691,3.3-7.576,4.662-11.364C55.766,130.268,57.126,126.285,58.195,122.4Z" transform="translate(-37.7 -122.4)"/></g><path class="m" d="M23,72.434s5.051-2.72,8.256-2.137a8,8,0,0,1,5.536,4.177,2.719,2.719,0,0,1-.389,2.331" transform="translate(-6.537 4.92)"/><path class="m" d="M23.3,79.1s5.828-3.594,8.159-3.3c1.748-.194,5.634.777,7.285,3.5.389,1.554-.1,2.137-.1,2.137" transform="translate(-6.545 4.76)"/><path class="m" d="M25.7,85.4a25.908,25.908,0,0,0,3.594-2.525c1.651-1.36,8.645-1.748,10.2,1.748.486,1.263-.583,3.3-.583,3.3" transform="translate(-6.614 4.585)"/><path class="m" d="M28.5,91.231S31.9,88.8,34.716,88.9s4.079-.291,4.954,1.068-.874,2.914-.874,2.914l-2.72,1.263" transform="translate(-6.694 4.384)"/><path class="n" d="M143.377,31.2a15.855,15.855,0,0,1-1.554,3.4,8.957,8.957,0,0,1-2.623,2.331" transform="translate(-9.87 6.039)"/><path class="n" d="M138.8,38.165s.194,3.3,4.177,2.623c3.205-.583,4.08-2.428,5.051-3.4s2.331-2.914,3.4-3.788" transform="translate(-9.859 5.97)"/><path class="n" d="M141.6,42.228c0,.1.291,2.623,1.166,3.205a6.692,6.692,0,0,0,7.285-.291c2.525-1.748,2.914-3.788,5.536-5.342" transform="translate(-9.939 5.792)"/><path class="n" d="M144.4,47.068a3.954,3.954,0,0,0,4.177,4.079c4.371.194,5.148-1.457,6.022-2.234s2.04-1.943,3.205-2.914" transform="translate(-10.02 5.615)"/><path class="o" d="M155.047,115.5s-.777,15.055-15.347,26.031" transform="translate(-9.885 3.62)"/><path class="e" d="M119.9,60.1s2.04.68.874,3.011" transform="translate(-9.317 5.21)"/><path class="e" d="M80.5,83.2s.1,2.72,2.72,2.04" transform="translate(-8.186 4.547)"/></g></svg>